<svg width="40" height="40" viewBox="0 0 40 40" fill="none" xmlns="http://www.w3.org/2000/svg">
<path d="M38.3332 4.99991C36.7371 6.12571 34.97 6.98676 33.0998 7.54991C32.0961 6.39577 30.7621 5.57773 29.2782 5.20646C27.7944 4.83518 26.2323 4.92857 24.8033 5.474C23.3743 6.01943 22.1472 6.99058 21.2881 8.25611C20.429 9.52163 19.9793 11.0205 19.9998 12.5499V14.2166C17.0709 14.2925 14.1686 13.6429 11.5515 12.3257C8.93441 11.0084 6.6837 9.06431 4.99984 6.66658C4.99984 6.66658 -1.66683 21.6666 13.3332 28.3332C9.90072 30.6632 5.81177 31.8315 1.6665 31.6666C16.6665 39.9999 34.9998 31.6666 34.9998 12.4999C34.9983 12.0357 34.9537 11.5726 34.8665 11.1166C36.5675 9.43907 37.7679 7.3211 38.3332 4.99991Z" stroke="white" stroke-width="2" stroke-linecap="round" stroke-linejoin="round"/>
</svg>
