<svg width="40" height="40" viewBox="0 0 40 40" fill="none" xmlns="http://www.w3.org/2000/svg">
<rect width="40" height="40" stroke="black"/>
<path d="M20.0005 3.02148C24.3634 3.02157 28.554 4.69609 31.7134 7.68945L32.0161 7.9834L32.0181 7.98438H32.0171C34.8306 10.8384 36.5483 14.593 36.8677 18.5879C37.187 22.5828 36.0876 26.5624 33.7632 29.8271C31.4387 33.0918 28.0382 35.4331 24.1587 36.4385C20.3005 37.4383 16.2148 37.0524 12.6118 35.3516L3.91357 37.0713L3.89502 37.0752H3.75049C3.61939 37.0755 3.4903 37.044 3.37354 36.9844C3.25671 36.9247 3.15524 36.8379 3.07861 36.7314C3.00217 36.6251 2.95256 36.5016 2.93311 36.3721C2.91371 36.2425 2.9254 36.1104 2.96729 35.9863V35.9854L5.40674 28.8086C3.47657 25.5571 2.67402 21.7585 3.12842 18.0029C3.58658 14.2162 5.29492 10.6906 7.98291 7.98438L7.98389 7.9834C11.1757 4.80579 15.4966 3.02148 20.0005 3.02148ZM20.0005 4.61621C17.9803 4.61621 15.9791 5.01491 14.1128 5.78809C12.2467 6.56126 10.5507 7.69457 9.12256 9.12305C6.66558 11.6062 5.1206 14.8478 4.73975 18.3203C4.35894 21.7929 5.16442 25.2923 7.0249 28.249H7.02588C7.09191 28.3535 7.13367 28.4719 7.14795 28.5947C7.16223 28.7175 7.1482 28.8421 7.10791 28.959L4.99463 35.1855L12.5669 33.6787L12.6655 33.6514L12.6919 33.6436H12.7202C12.8486 33.6443 12.975 33.6752 13.0894 33.7334C16.3536 35.3616 20.0901 35.7774 23.6323 34.9062C27.1745 34.0351 30.2925 31.934 32.4292 28.9775C34.5659 26.0211 35.5826 22.4013 35.2983 18.7646C35.0141 15.1281 33.4474 11.7106 30.8774 9.12207C29.4493 7.69368 27.7533 6.56121 25.8872 5.78809C24.021 5.01495 22.0205 4.61626 20.0005 4.61621Z" fill="white" stroke="white" stroke-width="0.4"/>
<g filter="url(#filter0_d_85_54)">
<path d="M24.4811 28.7501C24.2896 28.7605 24.0976 28.7605 23.9061 28.7501C20.5873 28.3876 16.4061 25.1063 15.2248 23.9501C14.0686 22.7938 10.7811 18.5876 10.4248 15.2688C10.1373 12.6188 11.9061 10.8188 12.6811 10.1626C13.0276 9.8649 13.4747 9.71066 13.9311 9.73133L15.6186 9.78758C15.742 9.79215 15.8613 9.83318 15.9614 9.90548C16.0615 9.97778 16.1379 10.0781 16.1811 10.1938C16.5561 11.1876 17.7686 14.4938 17.7686 15.3501C17.7686 16.1001 17.1061 16.6813 16.5186 17.1938C16.3936 17.3001 16.2248 17.4501 16.1248 17.5563C16.7565 18.7107 17.5131 19.7922 18.3811 20.7813C19.3703 21.6492 20.4518 22.4058 21.6061 23.0376C21.7123 22.9313 21.8623 22.7626 21.9686 22.6438C22.4811 22.0563 23.0623 21.3938 23.8436 21.3938C24.6998 21.3938 28.0061 22.6063 28.9998 22.9813C29.1155 23.0245 29.2159 23.1009 29.2882 23.201C29.3605 23.3011 29.4015 23.4204 29.4061 23.5438L29.4623 25.2313C29.4752 25.6865 29.3219 26.1309 29.0311 26.4813C28.4788 27.1626 27.7869 27.7177 27.0021 28.109C26.2172 28.5004 25.3576 28.719 24.4811 28.7501ZM16.1123 23.0501C17.1436 24.0813 21.1123 27.1751 24.0436 27.4938C26.0998 27.7126 27.5373 26.2938 28.0623 25.6751C28.1561 25.5585 28.2049 25.4121 28.1998 25.2626L28.1561 24.0126C26.7511 23.4492 25.3053 22.9937 23.8311 22.6501C23.6311 22.6501 23.1373 23.2313 22.9248 23.4751C22.4998 23.9626 22.1623 24.3438 21.6748 24.3438C20.8811 24.3438 18.1123 22.2938 17.4936 21.6751C16.8748 21.0563 14.8436 18.2688 14.8436 17.5001C14.8436 17.0313 15.2248 16.6938 15.7123 16.2501C15.9498 16.0376 16.5186 15.5501 16.5373 15.3438C16.1936 13.8697 15.7381 12.4238 15.1748 11.0188L13.9248 10.9751C13.7753 10.9701 13.6289 11.0189 13.5123 11.1126C12.8873 11.6376 11.4686 13.0751 11.6936 15.1251C12.0123 18.0751 15.1061 22.0001 16.1373 23.0563L16.1123 23.0501Z" fill="white"/>
<path d="M13.9395 9.53223L15.625 9.58789H15.626C15.7887 9.59392 15.946 9.64787 16.0781 9.74316C16.21 9.83841 16.3112 9.97069 16.3682 10.123C16.5561 10.6212 16.9544 11.6992 17.3057 12.7607C17.4812 13.2913 17.6457 13.8203 17.7666 14.2715C17.8853 14.7143 17.9686 15.1055 17.9688 15.3496C17.9688 15.7867 17.7745 16.1633 17.5205 16.4854C17.268 16.8054 16.9413 17.091 16.6504 17.3447L16.6484 17.3467C16.5628 17.4195 16.4599 17.5105 16.374 17.5918C16.9814 18.6798 17.7012 19.7012 18.5225 20.6387C19.4591 21.4592 20.4797 22.1779 21.5664 22.7852L21.8193 22.5107C22.0729 22.2201 22.3584 21.8931 22.6826 21.6406C23.0099 21.3859 23.3929 21.1934 23.8438 21.1934C24.0879 21.1934 24.4797 21.2767 24.9229 21.3955C25.3739 21.5164 25.9022 21.6819 26.4326 21.8574C27.494 22.2086 28.5721 22.6059 29.0703 22.7939H29.0693C29.2221 22.8509 29.3548 22.9519 29.4502 23.084C29.5456 23.216 29.5994 23.3733 29.6055 23.5361L29.6064 23.5371L29.6621 25.2246V25.2256C29.6763 25.7286 29.5064 26.2189 29.1855 26.6064C28.6153 27.3099 27.9013 27.884 27.0908 28.2881C26.2814 28.6916 25.395 28.9167 24.4912 28.9492C24.2928 28.96 24.0939 28.961 23.8955 28.9502L23.8848 28.9492C22.179 28.7629 20.2718 27.8318 18.6572 26.8174C17.0386 25.8004 15.6868 24.6818 15.085 24.0928L15.083 24.0918C14.4926 23.5014 13.373 22.1479 12.3555 20.5264C11.3403 18.9087 10.4087 16.9958 10.2256 15.29C9.92702 12.5362 11.7647 10.6762 12.5518 10.0098C12.9359 9.68029 13.431 9.51023 13.9365 9.53223L13.9375 9.53125H13.9404L13.9395 9.53223ZM13.8428 11.1787C13.7681 11.1896 13.6972 11.2207 13.6377 11.2686C13.0215 11.7871 11.6796 13.163 11.8926 15.1035L11.9287 15.374C12.1505 16.7405 12.9372 18.3089 13.8174 19.6934C14.7531 21.1651 15.7754 22.3999 16.2803 22.917L16.499 23.1406C17.0985 23.6877 18.1958 24.5614 19.4727 25.3701C20.955 26.309 22.6476 27.1407 24.0654 27.2949H24.0645C26.011 27.502 27.3868 26.1607 27.9062 25.5498C27.9541 25.4903 27.9852 25.4194 27.9961 25.3447L28 25.2695L27.96 24.1504C26.6168 23.6186 25.2366 23.1856 23.8301 22.8555C23.812 22.8646 23.7869 22.8803 23.7549 22.9043C23.6884 22.9542 23.6092 23.0271 23.5244 23.1123C23.3552 23.2822 23.1834 23.4823 23.0752 23.6064C22.8661 23.8463 22.6631 24.079 22.4473 24.249C22.226 24.4233 21.977 24.5439 21.6748 24.5439C21.5393 24.5439 21.3824 24.5013 21.2227 24.4414C21.0589 24.3801 20.8745 24.2937 20.6797 24.1904C20.29 23.9839 19.8436 23.7042 19.4062 23.4072C18.5349 22.8156 17.6757 22.1395 17.3525 21.8164C17.0289 21.4928 16.3571 20.6283 15.7705 19.7559C15.476 19.3178 15.1988 18.8711 14.9941 18.4834C14.8919 18.2897 14.8059 18.1069 14.7451 17.9453C14.686 17.7879 14.6436 17.6328 14.6436 17.5C14.6436 17.2054 14.7658 16.9615 14.9385 16.7422C15.1073 16.5278 15.3391 16.3201 15.5781 16.1025L15.5791 16.1006C15.7011 15.9914 15.8965 15.8223 16.0654 15.6533C16.15 15.5688 16.2235 15.4887 16.2754 15.4209C16.3012 15.3871 16.3192 15.3593 16.3301 15.3389V15.3379C16 13.9334 15.5672 12.5553 15.0361 11.2139L13.918 11.1748L13.8428 11.1787Z" stroke="white" stroke-width="0.4"/>
</g>
<defs>
<filter id="filter0_d_85_54" x="5.99316" y="9.32959" width="27.8701" height="27.8284" filterUnits="userSpaceOnUse" color-interpolation-filters="sRGB">
<feFlood flood-opacity="0" result="BackgroundImageFix"/>
<feColorMatrix in="SourceAlpha" type="matrix" values="0 0 0 0 0 0 0 0 0 0 0 0 0 0 0 0 0 0 127 0" result="hardAlpha"/>
<feOffset dy="4"/>
<feGaussianBlur stdDeviation="2"/>
<feComposite in2="hardAlpha" operator="out"/>
<feColorMatrix type="matrix" values="0 0 0 0 0 0 0 0 0 0 0 0 0 0 0 0 0 0 0.25 0"/>
<feBlend mode="normal" in2="BackgroundImageFix" result="effect1_dropShadow_85_54"/>
<feBlend mode="normal" in="SourceGraphic" in2="effect1_dropShadow_85_54" result="shape"/>
</filter>
</defs>
</svg>
