<svg width="50" height="50" viewBox="0 0 50 50" fill="none" xmlns="http://www.w3.org/2000/svg">
<path d="M35.65 27.39L25 35.13L14.35 27.39C14.2072 27.285 14.1013 27.1376 14.0474 26.9687C13.9935 26.7999 13.9944 26.6183 14.05 26.45L15.27 22.67L17.71 15.16C17.7337 15.0988 17.7713 15.044 17.82 15C17.8992 14.9276 18.0027 14.8875 18.11 14.8875C18.2173 14.8875 18.3208 14.9276 18.4 15C18.4514 15.0497 18.4892 15.1116 18.51 15.18L20.95 22.67H29.05L31.49 15.16C31.5137 15.0988 31.5513 15.044 31.6 15C31.6792 14.9276 31.7827 14.8875 31.89 14.8875C31.9973 14.8875 32.1008 14.9276 32.18 15C32.2314 15.0497 32.2692 15.1116 32.29 15.18L34.73 22.69L36 26.45C36.0505 26.6235 36.0437 26.8087 35.9807 26.978C35.9176 27.1473 35.8017 27.2918 35.65 27.39Z" stroke="black" stroke-width="2" stroke-linecap="round" stroke-linejoin="round"/>
<circle cx="25" cy="25" r="24.5" stroke="black"/>
</svg>
