<svg width="47" height="47" viewBox="0 0 47 47" fill="none" xmlns="http://www.w3.org/2000/svg">
<path d="M29.4729 9.79165C31.3857 10.1648 33.1436 11.1003 34.5216 12.4784C35.8996 13.8564 36.8351 15.6143 37.2083 17.5271M29.4729 1.95831C33.4469 2.39979 37.1527 4.17941 39.9818 7.00495C42.8109 9.8305 44.5952 13.534 45.0416 17.5075M43.0833 33.135V39.01C43.0855 39.5554 42.9738 40.0952 42.7553 40.5949C42.5368 41.0947 42.2163 41.5433 41.8145 41.912C41.4126 42.2807 40.9381 42.5614 40.4214 42.7361C39.9048 42.9108 39.3573 42.9757 38.8141 42.9266C32.788 42.2719 26.9995 40.2127 21.9137 36.9146C17.1821 33.9079 13.1704 29.8962 10.1637 25.1646C6.85409 20.0557 4.79445 14.239 4.15164 8.18581C4.1027 7.64427 4.16706 7.09847 4.34062 6.58316C4.51418 6.06785 4.79313 5.59433 5.15972 5.19274C5.52631 4.79115 5.97251 4.47029 6.46989 4.25059C6.96728 4.03088 7.50497 3.91716 8.04872 3.91665H13.9237C14.8741 3.90729 15.7955 4.24384 16.5161 4.86356C17.2367 5.48329 17.7074 6.3439 17.8404 7.28498C18.0884 9.16511 18.5482 11.0112 19.2112 12.7879C19.4747 13.4888 19.5317 14.2506 19.3755 14.983C19.2194 15.7153 18.8565 16.3875 18.33 16.92L15.8429 19.4071C18.6307 24.3098 22.6901 28.3693 27.5929 31.1571L30.08 28.67C30.6124 28.1435 31.2846 27.7806 32.017 27.6244C32.7493 27.4682 33.5111 27.5252 34.2121 27.7887C35.9888 28.4517 37.8348 28.9116 39.715 29.1596C40.6663 29.2938 41.5351 29.7729 42.1561 30.5059C42.7771 31.2389 43.1071 32.1746 43.0833 33.135Z" stroke="white" stroke-width="2" stroke-linecap="round" stroke-linejoin="round"/>
</svg>
