<svg width="50" height="50" viewBox="0 0 50 50" fill="none" xmlns="http://www.w3.org/2000/svg">
<path d="M35.54 19.42C35.4212 18.9454 35.1793 18.5106 34.8386 18.1594C34.498 17.8082 34.0707 17.5532 33.6 17.42C31.88 17 25 17 25 17C25 17 18.12 17 16.4 17.46C15.9292 17.5932 15.502 17.8482 15.1613 18.1994C14.8207 18.5506 14.5788 18.9854 14.46 19.46C14.1452 21.2056 13.9912 22.9763 14 24.75C13.9888 26.537 14.1428 28.3213 14.46 30.08C14.591 30.5398 14.8383 30.9581 15.1781 31.2945C15.518 31.6308 15.9388 31.8738 16.4 32C18.12 32.46 25 32.46 25 32.46C25 32.46 31.88 32.46 33.6 32C34.0707 31.8668 34.498 31.6118 34.8386 31.2606C35.1793 30.9094 35.4212 30.4746 35.54 30C35.8524 28.2676 36.0063 26.5103 36 24.75C36.0112 22.963 35.8572 21.1787 35.54 19.42Z" stroke="black" stroke-width="2" stroke-linecap="round" stroke-linejoin="round"/>
<path d="M22.75 28.02L28.5 24.75L22.75 21.48V28.02Z" stroke="black" stroke-width="2" stroke-linecap="round" stroke-linejoin="round"/>
<circle cx="25" cy="25" r="24.5" stroke="black"/>
</svg>
