<?xml version="1.0" encoding="utf-8"?>
<!-- Generator: Adobe Illustrator 24.0.1, SVG Export Plug-In . SVG Version: 6.00 Build 0)  -->
<svg version="1.1" id="Layer_1" xmlns="http://www.w3.org/2000/svg" xmlns:xlink="http://www.w3.org/1999/xlink" x="0px" y="0px"
	 viewBox="0 0 800 800" style="enable-background:new 0 0 800 800;" xml:space="preserve">
<style type="text/css">
	.st0{fill:#B2A31F;}
</style>
<g>
	<path class="st0" d="M400,0C179.1,0,0,179.1,0,400s179.1,400,400,400s400-179.1,400-400S620.9,0,400,0z M649.7,649.5
		c-32.5,32.5-70.2,58-112.2,75.6c-43.4,18.4-89.7,27.7-137.5,27.7c-47.7,0-93.9-9.4-137.5-27.7c-42-17.8-79.8-43.3-112.2-75.6
		c-32.5-32.5-58-70.2-75.6-112.2C56.3,493.9,46.9,447.7,46.9,400s9.4-93.9,27.7-137.5c17.8-42,43.3-79.8,75.6-112.2
		c32.7-32.5,70.3-58,112.3-75.8c43.6-18.3,89.8-27.7,137.5-27.7s93.9,9.4,137.5,27.7c42,17.8,79.8,43.3,112.2,75.6
		c32.5,32.5,58,70.2,75.6,112.2C743.7,305.8,753,352,753,399.8c0,47.7-9.4,93.9-27.7,137.5C707.5,579.4,682,617.2,649.7,649.5z"/>
	<ellipse class="st0" cx="398.5" cy="402.5" rx="360.5" ry="367.5"/>
	<path d="M451.4,266.2c16.1,0,33.3,5,33.3,5L495,210c0,0-21.9-7.5-74.1-7.5c-32,0-50.6,12.2-64.2,30.2c-12.8,17-13.3,44.4-13.3,62
		v40.2H302v59.8h41.4v207.8h77.5V394.7h61.4l4.5-59.8h-65.9v-46.7C420.9,272,435.3,266.2,451.4,266.2z"/>
</g>
</svg>
