<?xml version="1.0" encoding="utf-8"?>
<!-- Generator: Adobe Illustrator 24.0.1, SVG Export Plug-In . SVG Version: 6.00 Build 0)  -->
<svg version="1.1" id="Layer_1" xmlns="http://www.w3.org/2000/svg" xmlns:xlink="http://www.w3.org/1999/xlink" x="0px" y="0px"
	 viewBox="0 0 800 800" style="enable-background:new 0 0 800 800;" xml:space="preserve">
<style type="text/css">
	.st0{fill:#B2A31F;}
</style>
<g>
	<path class="st0" d="M400,0C179.1,0,0,179.1,0,400s179.1,400,400,400s400-179.1,400-400S620.9,0,400,0z M649.7,649.5
		c-32.5,32.5-70.2,58-112.2,75.6c-43.4,18.4-89.7,27.7-137.5,27.7c-47.7,0-93.9-9.4-137.5-27.7c-42-17.8-79.8-43.3-112.2-75.6
		c-32.5-32.5-58-70.2-75.6-112.2C56.3,493.9,46.9,447.7,46.9,400s9.4-93.9,27.7-137.5c17.8-42,43.3-79.8,75.6-112.2
		c32.7-32.5,70.3-58,112.3-75.8c43.6-18.3,89.8-27.7,137.5-27.7s93.9,9.4,137.5,27.7c42,17.8,79.8,43.3,112.2,75.6
		c32.5,32.5,58,70.2,75.6,112.2C743.7,305.8,753,352,753,399.8c0,47.7-9.4,93.9-27.7,137.5C707.5,579.4,682,617.2,649.7,649.5z"/>
	<ellipse class="st0" cx="390.9" cy="400" rx="362.1" ry="368.6"/>
	<path d="M531.6,213.9H286.3c-42.7,0-77.3,34.7-77.3,77.3V373v163.8c0,42.7,34.7,77.3,77.3,77.3h245.3c42.7,0,77.3-34.7,77.3-77.3
		v-164v-81.7C608.8,248.6,574.1,213.9,531.6,213.9z M553.8,260h8.9v8.8v59.1L495,328l-0.2-67.8L553.8,260z M351.7,372.8
		c12.8-17.7,33.6-29.4,57-29.4s44.2,11.6,57,29.4c8.4,11.6,13.3,25.8,13.3,41.1c0,38.7-31.6,70.5-70.5,70.5s-70.2-31.7-70.2-70.5
		C338.5,398.6,343.5,384.4,351.7,372.8z M569.9,536.6c0,21.1-17.2,38.3-38.3,38.3H286.3c-21.1,0-38.3-17.2-38.3-38.3V372.8h59.7
		c-5.2,12.7-8.1,26.6-8.1,41.1c0,60.3,49.1,109.4,109.4,109.4s109.4-49.1,109.4-109.4c0-14.5-3-28.4-8.1-41.1H570L569.9,536.6
		L569.9,536.6z"/>
</g>
</svg>
