<?xml version="1.0" encoding="utf-8"?>
<!-- Generator: Adobe Illustrator 24.0.1, SVG Export Plug-In . SVG Version: 6.00 Build 0)  -->
<svg version="1.1" id="Capa_1" xmlns="http://www.w3.org/2000/svg" xmlns:xlink="http://www.w3.org/1999/xlink" x="0px" y="0px"
	 viewBox="0 0 12 12" style="enable-background:new 0 0 12 12;" xml:space="preserve">
<style type="text/css">
	.st0{fill:#FFFFFF;}
</style>
<path class="st0" d="M8.7,8.7c0.3,0,0.6,0.1,0.8,0.3c0.2,0.2,0.3,0.5,0.3,0.8s-0.1,0.6-0.3,0.8c-0.2,0.2-0.5,0.3-0.8,0.3
	c-0.3,0-0.6-0.1-0.8-0.3c-0.2-0.2-0.3-0.5-0.3-0.8C7.6,9.2,8.1,8.7,8.7,8.7z M0,0.1h1.8l0.5,1.1h8c0.1,0,0.3,0.1,0.4,0.2
	c0.1,0.1,0.2,0.2,0.2,0.4c0,0.1,0,0.2-0.1,0.3L8.9,5.5C8.7,5.8,8.3,6,7.9,6h-4L3.4,6.9l0,0.1c0,0,0,0.1,0,0.1c0,0,0.1,0,0.1,0h6.3
	v1.1H3.3C3,8.2,2.7,8.1,2.5,7.9C2.3,7.7,2.2,7.4,2.2,7.1c0-0.2,0-0.4,0.1-0.5l0.7-1.3l-2-4.1H0V0.1z M3.3,8.7c0.3,0,0.6,0.1,0.8,0.3
	c0.2,0.2,0.3,0.5,0.3,0.8s-0.1,0.6-0.3,0.8c-0.2,0.2-0.5,0.3-0.8,0.3c-0.3,0-0.6-0.1-0.8-0.3c-0.2-0.2-0.3-0.5-0.3-0.8
	C2.2,9.2,2.7,8.7,3.3,8.7z M8.2,5l1.5-2.7H2.8L4.1,5H8.2z"/>
</svg>
