<?xml version="1.0" encoding="UTF-8"?><svg xmlns="http://www.w3.org/2000/svg" version="1.1" viewBox="0 0 883.9 199.3"><defs><style>.cls-1 {
        fill: none;
        stroke: #000;
        stroke-miterlimit: 10;
        stroke-width: .5px;
      }

      .cls-2 {
        isolation: isolate;
      }

      .cls-3 {
        display: none;
      }</style></defs><!--Generator: Adobe Illustrator 28.7.4, SVG Export Plug-In . SVG Version: 1.2.0 Build 166)--><g><g id="Ebene_1"><g><g id="dirtlove" class="cls-3"><polygon points="440.4 17.5 398.8 17.5 398.8 26.2 415.2 26.2 415.2 181 424 172.2 424 26.2 440.4 26.2 440.4 17.5"/><path d="M302.1,17.5h-41.6v164.2l41.6-41.5v-.4h0V17.5h0ZM269.3,26.2h24v110.3l-24,24V26.2Z"/><path d="M394.2,93.2V26.2h0v-8.8h-41.6v163.7h8.8v-54.3l11.9-11.9,12.1,12.1v54.1h8.8v-57.7h0l-14.7-14.7,14.7-14.7v-.9h0ZM361.3,26.2h24v64.3l-24,24V26.2Z"/><polygon points="348.2 26.2 348.2 17.5 306.5 17.5 306.5 26.2 322.9 26.2 322.9 152.9 306.5 169.3 306.5 181.7 348.2 140.2 348.2 127.8 331.7 144.1 331.7 26.2 348.2 26.2"/><polygon points="572.1 17.5 572.1 136 548.1 160 548.1 17.5 539.3 17.5 539.3 180.7 539.3 180.7 539.3 181.2 580.9 139.7 580.9 139.3 580.9 127.3 580.9 17.5 572.1 17.5"/><path d="M533.5,81.8h0V17.5h-41.6v163.7h41.6v-87h0s0-12.4,0-12.4ZM524.7,26.2v64.3l-24,24V26.2h24ZM524.7,172.4h-24v-45.5l24-24v69.5Z"/><polygon points="627.8 93.6 627.8 81.2 595 114 595 26.2 627.8 26.2 627.8 17.5 586.2 17.5 586.2 17.6 586.2 17.6 586.2 180.7 586.2 180.7 586.2 181.2 627.8 139.7 627.8 127.3 595 160 595 126.4 627.8 93.6"/><polygon points="454.7 160 454.7 17.5 445.9 17.5 445.9 168.7 445.9 168.8 445.9 181.2 487.5 139.7 487.5 127.3 454.7 160"/></g><g id="primus" class="cls-3"><g><g><polygon points="690.7 108.8 705 65 623.1 65 623.1 64.8 603.7 123.8 660.8 123.8 653 147.6 620.7 147.6 626 131.4 601.1 131.4 593.3 155.2 675.3 155.2 688.1 116.3 631 116.3 645.5 72.5 677.7 72.5 665.8 108.8 690.7 108.8"/><path d="M208.5,64.7h-24.8c0,0-29.7,90.4-29.7,90.4h24.8l10.3-31.4h57.5l19.5-59s-57.6,0-57.6,0ZM224.2,116.2h-32.3l14.4-43.9h32.3l-14.4,43.9Z"/><polygon points="373.4 64.7 373.4 64.8 343.7 155.1 360.3 180.2 398.2 64.7 373.4 64.7"/><polygon points="492.6 64.7 492.6 64.8 492.4 64.7 449.7 142.6 438.5 64.8 435 64.8 435 64.7 410.2 64.7 410.2 64.8 380.5 155.1 397.1 180.2 420.1 110.2 426.6 155.1 451.5 155.1 451.5 155 480.1 102.7 462.8 155.1 479.4 180.2 517.3 64.7 492.6 64.7"/><path d="M360.7,64.7h-82.3c0,0-29.7,90.4-29.7,90.4h26.3c0,.1,9.8-31.4,9.8-31.4h9.9l10.6,31.4h24.9l-10.5-31.4h21.6l19.5-59h-.1ZM318.7,116.2h-31.7l10.7-34.2,3.2-9.6h32.3l-14.4,43.9h-.1Z"/><polygon points="592.2 123.7 592.7 122.1 592.7 122.1 611.7 64.7 586.7 64.7 583.2 75.4 583.1 75.4 569.8 116.2 567.3 123.7 559.5 147.5 527.2 147.5 535.1 123.7 537.6 115.9 550.9 75.4 550.8 75.4 554.3 64.7 529.5 64.7 529.5 64.8 499.8 155.1 581.8 155.1 592.2 123.7 592.2 123.7"/></g><g><path d="M330.9,48.7h1.9c1.8,0,3.4-.6,4.1-3.2l7.5-25.6h5.6l-7.4,25.2c-2,6.7-6.3,8.4-10.5,8.4s-1.8,0-2.7,0l1.4-4.8h.1Z"/><path d="M380.7,34.1h7.7l-1.4,4.8h-7.7l-2.9,9.8h9.7l-1.4,4.8h-15.3l9.8-33.6h15.3l-1.4,4.8h-9.7l-2.7,9.4Z"/><path d="M424.7,34.9h7.2l-1.4,4.8h-7.2l-4.1,13.9h-5.6l9.8-33.6h14.8l-1.4,4.8h-9.2l-3,10.1h.1Z"/><path d="M467.6,34.9h7.2l-1.4,4.8h-7.2l-4.1,13.9h-5.6l9.8-33.6h14.8l-1.4,4.8h-9.2l-3,10.1h.1Z"/><path d="M516.9,19.6c5.4,0,7.3,3.1,5.8,8.4l-.3,1.1h-5.3l.4-1.4c.7-2.4,0-3.3-1.8-3.3s-3.1.9-3.8,3.3c-2,6.9,8.5,8.2,5.7,17.8-1.6,5.4-5.3,8.4-10.8,8.4s-7.4-3.1-5.9-8.4l.6-2.1h5.3l-.7,2.4c-.7,2.4.2,3.3,1.9,3.3s3.2-.9,3.9-3.3c2-6.9-8.5-8.2-5.7-17.8,1.6-5.4,5.3-8.4,10.7-8.4h0Z"/><path d="M552.1,42.4l-.5-22.4h5.8l-.2,15.3,8.8-15.3h5.3l-13.6,22.4-3.3,11.1h-5.6l3.3-11.1Z"/></g></g></g><g id="decoy" class="cls-3"><g><polyline points="286.9 130.5 286.9 144.8 329.1 144.8 329.1 130.5 286.9 130.5"/><polyline points="329.1 60.1 329.1 46.3 286.9 46.3 286.9 60.4 329.1 60.4"/><path d="M464.7,79.5v-9.6c0-8-1.9-13.9-5.6-18.2-3.9-4.3-9.6-6.5-17.3-6.5s-13.2,2.2-17.3,6.5c-3.9,4.3-5.9,10.2-5.9,18.2v50.9c0,8,1.9,14.2,5.9,18.6,3.7,4.3,9.6,6.5,17.3,6.5s13.2-2.2,17.3-6.5c3.7-4.3,5.6-10.6,5.6-18.6v-12.9h-14.5v15.9c0,4.4-3.6,8-8,8s-8-3.6-8-8v-56.8c0-4.4,3.6-8,8-8s8,3.6,8,8v12.5h14.5Z"/><polyline points="286.9 102.3 323.7 102.3 323.7 88.4 286.9 88.4 286.9 102.3"/><polygon points="705.2 111.9 705.2 144.8 720.7 144.8 720.7 111.9 740.1 46.3 725.3 46.3 713.6 91.1 713.2 91.1 701.5 46.3 685.5 46.3 705.2 111.9"/><path d="M601.1,74v-4.1c0-8-1.9-13.9-5.6-18.2-3.9-4.3-9.6-6.5-17.3-6.5s-13.2,2.2-17.3,6.5c-3.9,4.3-5.9,10.2-5.9,18.2v49.5l4.8-4.6v6c0,8,1.9,14.2,5.9,18.6,3.7,4.3,9.6,6.5,17.3,6.5s13.2-2.2,17.3-6.5c3.7-4.3,5.6-10.6,5.6-18.6v-51.6l-4.8,4.8h0ZM583.2,131.8c-4.4,0-8-3.6-8-8v-24.4l-4.8,4.6v-37.2c0-4.4,3.6-8,8-8s8,3.6,8,8v21.5l4.8-4.6v40.1c0,4.4-3.5,8-8,8Z"/><path d="M190.6,52.4c-3.9-3.9-9.6-6.1-17.3-6.1h-24.7v14.2h24.4c4.3,0,7.8,3.5,7.8,7.8v55.2c-.3,3.9-3.5,7-7.5,7.2h-24.6v14.2h24.5c7.8,0,13.6-2.2,17.3-6.1,3.7-4.3,5.9-10.2,5.9-18.2v-50c-.2-8.1-2-14-5.7-18v-.2Z"/></g></g><g id="decoy_29" class="cls-3"><g><polyline points="264.5 130.3 264.5 144.5 306.6 144.5 306.6 130.3 264.5 130.3"/><polyline points="306.6 60 306.6 46.2 264.5 46.2 264.5 60.3 306.6 60.3"/><g><path d="M423.5,79.3v-9.6c0-8-1.9-13.9-5.6-18.2-3.9-4.3-9.6-6.5-17.3-6.5s-13.2,2.2-17.3,6.5c-3.9,4.3-5.9,10.2-5.9,18.2v50.9c0,8,1.9,14.1,5.9,18.5,3.7,4.3,9.6,6.5,17.3,6.5s13.2-2.2,17.3-6.5c3.7-4.3,5.6-10.5,5.6-18.5v-12.9h-14.5v15.9c0,4.4-3.6,8-8,8s-8-3.6-8-8v-56.8c0-4.4,3.6-8,8-8s8,3.6,8,8v12.5h14.5Z"/><polyline points="264.5 102.1 301.2 102.1 301.2 88.2 264.5 88.2 264.5 102.1"/><polygon points="617.1 111.8 617.1 144.5 632.6 144.5 632.6 111.8 652 46.2 637.2 46.2 625.5 90.9 625.1 90.9 613.4 46.2 597.5 46.2 617.1 111.8"/><path d="M536.1,73.9v-4.1c0-8-1.9-13.9-5.6-18.2-3.9-4.3-9.6-6.5-17.3-6.5s-13.2,2.2-17.3,6.5c-3.9,4.3-5.9,10.2-5.9,18.2v49.5l4.8-4.6v6c0,8,1.9,14.1,5.9,18.5,3.7,4.3,9.6,6.5,17.3,6.5s13.2-2.2,17.3-6.5c3.7-4.3,5.6-10.5,5.6-18.5v-51.6l-4.8,4.8h0ZM518.3,131.6c-4.4,0-8-3.6-8-8v-24.3l-4.8,4.6v-37.2c0-4.4,3.6-8,8-8s8,3.6,8,8v21.4l4.8-4.6v40.1c0,4.4-3.5,8-8,8Z"/><path d="M191.3,52.3c-3.9-3.9-9.6-6.1-17.3-6.1h-24.7v14.1h24.3c4.3,0,7.8,3.5,7.8,7.8v55.2c-.3,3.9-3.5,7-7.5,7.2h-24.6v14.1h24.4c7.8,0,13.6-2.2,17.3-6.1,3.7-4.3,5.9-10.2,5.9-18.2v-49.9c-.2-8.1-2-14-5.7-18h.1Z"/><g><path d="M702,51.9c-2.4,0-3.9,1.3-3.9,4.8v5.2h-7.2v-4.6c0-7.8,3.8-12.2,11.2-12.2s11.4,4.4,11.4,12.2c0,15.2-15.1,20.9-15.1,28.7v1h14.4v7h-21.9v-5.9c0-14.1,14.9-16.6,14.9-30.5,0-4.5-1.5-5.7-3.8-5.7h0Z"/><path d="M746.5,81.7c0,8.1-3.7,12.5-11.6,12.5s-11.4-4.4-11.4-12.2v-1.3h7.2v1.7c0,3.5,1.5,4.8,3.9,4.8s4.2-1.3,4.2-5.9v-8.8c-1.3,2.8-3.6,4.3-7.1,4.3-5.6,0-8.5-3.9-8.5-11v-8.8c0-7.8,4.1-12.2,11.5-12.2s11.6,4.4,11.6,12.2v24.7h.2ZM738.8,65.3v-8.7c0-3.5-1.5-4.6-3.9-4.6s-3.9,1.3-3.9,4.6v8.7c0,3.5,1.5,4.8,3.9,4.8s3.9-1.3,3.9-4.8Z"/></g></g></g></g><g id="decoy_Bosch"><g><polyline points="286.9 158.5 286.9 172.8 329.1 172.8 329.1 158.5 286.9 158.5"/><polyline points="329.1 88.1 329.1 74.3 286.9 74.3 286.9 88.4 329.1 88.4"/><path d="M464.7,107.5v-9.6c0-8-1.9-13.9-5.6-18.2-3.9-4.3-9.6-6.5-17.3-6.5s-13.2,2.2-17.3,6.5c-3.9,4.3-5.9,10.2-5.9,18.2v50.9c0,8,1.9,14.2,5.9,18.6,3.7,4.3,9.6,6.5,17.3,6.5s13.2-2.2,17.3-6.5c3.7-4.3,5.6-10.6,5.6-18.6v-12.9h-14.5v15.9c0,4.4-3.6,8-8,8s-8-3.6-8-8v-56.8c0-4.4,3.6-8,8-8s8,3.6,8,8v12.5h14.5Z"/><polyline points="286.9 130.3 323.7 130.3 323.7 116.4 286.9 116.4 286.9 130.3"/><polygon points="705.2 140 705.2 172.8 720.7 172.8 720.7 140 740.1 74.3 725.3 74.3 713.6 119.1 713.2 119.1 701.5 74.3 685.5 74.3 705.2 140"/><path d="M601.1,102v-4.1c0-8-1.9-13.9-5.6-18.2-3.9-4.3-9.6-6.5-17.3-6.5s-13.2,2.2-17.3,6.5c-3.9,4.3-5.9,10.2-5.9,18.2v49.5l4.8-4.6v6c0,8,1.9,14.2,5.9,18.6,3.7,4.3,9.6,6.5,17.3,6.5s13.2-2.2,17.3-6.5c3.7-4.3,5.6-10.6,5.6-18.6v-51.6s-4.8,4.8-4.8,4.8ZM583.2,159.8c-4.4,0-8-3.6-8-8v-24.4l-4.8,4.6v-37.2c0-4.4,3.6-8,8-8s8,3.6,8,8v21.5l4.8-4.6v40.1c0,4.4-3.5,8-8,8Z"/><path d="M190.6,80.4c-3.9-3.9-9.6-6.1-17.3-6.1h-24.7v14.2h24.4c4.3,0,7.8,3.5,7.8,7.8v55.2c-.3,3.9-3.5,7-7.5,7.2h-24.6v14.2h24.5c7.8,0,13.6-2.2,17.3-6.1,3.7-4.3,5.9-10.2,5.9-18.2v-50c-.2-8.1-2-14-5.7-18v-.2Z"/></g><g class="cls-2"><g class="cls-2"><path d="M248.8,19.5h17.7v5.2h-6v31.2h-5.7v-31.2h-6v-5.2Z"/><path d="M295.5,55.9h-5.7V19.5h5.7v15.6h6.5v-15.6h5.8v36.4h-5.8v-15.6h-6.5v15.6Z"/><path d="M338.5,34.8h7.9v5.2h-7.9v10.7h9.9v5.2h-15.6V19.5h15.6v5.2h-9.9v10.1Z"/><path d="M420.1,55.9h-5.8l-1-6.6h-7l-1,6.6h-5.3l5.8-36.4h8.4l5.8,36.4ZM407.1,44.4h5.5l-2.8-18.4-2.8,18.4Z"/><path d="M443.6,19.5h5.7v31.2h9.4v5.2h-15.1V19.5Z"/><path d="M482,19.5h5.7v31.2h9.4v5.2h-15.1V19.5Z"/><path d="M554.4,29.5v26.4h-5.1V19.5h7.2l5.9,21.8v-21.8h5.1v36.4h-5.9l-7.1-26.4Z"/><path d="M598,34.8h7.9v5.2h-7.9v10.7h9.9v5.2h-15.6V19.5h15.6v5.2h-9.9v10.1Z"/><path d="M644.9,36.5l-2.1,19.4h-7.9l-4.1-36.4h5.6l3.1,28.7,2.8-28.7h5.5l2.9,28.9,3-28.9h5l-4.1,36.4h-7.6l-2.1-19.4Z"/></g><g class="cls-2"><path class="cls-1" d="M248.8,19.5h17.7v5.2h-6v31.2h-5.7v-31.2h-6v-5.2Z"/><path class="cls-1" d="M295.5,55.9h-5.7V19.5h5.7v15.6h6.5v-15.6h5.8v36.4h-5.8v-15.6h-6.5v15.6Z"/><path class="cls-1" d="M338.5,34.8h7.9v5.2h-7.9v10.7h9.9v5.2h-15.6V19.5h15.6v5.2h-9.9v10.1Z"/><path class="cls-1" d="M420.1,55.9h-5.8l-1-6.6h-7l-1,6.6h-5.3l5.8-36.4h8.4l5.8,36.4ZM407.1,44.4h5.5l-2.8-18.4-2.8,18.4Z"/><path class="cls-1" d="M443.6,19.5h5.7v31.2h9.4v5.2h-15.1V19.5Z"/><path class="cls-1" d="M482,19.5h5.7v31.2h9.4v5.2h-15.1V19.5Z"/><path class="cls-1" d="M554.4,29.5v26.4h-5.1V19.5h7.2l5.9,21.8v-21.8h5.1v36.4h-5.9l-7.1-26.4Z"/><path class="cls-1" d="M598,34.8h7.9v5.2h-7.9v10.7h9.9v5.2h-15.6V19.5h15.6v5.2h-9.9v10.1Z"/><path class="cls-1" d="M644.9,36.5l-2.1,19.4h-7.9l-4.1-36.4h5.6l3.1,28.7,2.8-28.7h5.5l2.9,28.9,3-28.9h5l-4.1,36.4h-7.6l-2.1-19.4Z"/></g></g></g><g id="decoy_SN" class="cls-3"><g><g><path d="M349.5,83.1v-7.5c0-6.3-1.5-10.9-4.4-14.3-3.2-3.4-7.5-5.1-13.6-5.1s-10.4,1.7-13.6,5.1-4.6,8-4.6,14.3v40c0,6.3,1.5,11.2,4.6,14.6,2.9,3.4,7.5,5.1,13.6,5.1s10.4-1.7,13.6-5.1c2.9-3.4,4.4-8.3,4.4-14.6v-10.2h-11.4v12.5c0,3.5-2.8,6.3-6.3,6.3s-6.3-2.8-6.3-6.3v-44.7c0-3.5,2.8-6.3,6.3-6.3s6.3,2.8,6.3,6.3v9.8h11.4Z"/><polyline points="218 123.2 218 134.4 251.3 134.4 251.3 123.2 218 123.2"/><polyline points="218 101 246.9 101 246.9 90.1 218 90.1 218 101"/><polyline points="251.3 67.9 251.3 57 218 57 218 68.1 251.3 68.1"/><polygon points="521.4 108.7 521.4 134.4 533.5 134.4 533.5 108.7 548.8 57 537.1 57 527.9 92.2 527.7 92.2 518.4 57 505.8 57 521.4 108.7"/><path d="M447.8,78.8v-3.2c0-6.3-1.5-10.9-4.4-14.3-3.2-3.4-7.5-5.1-13.6-5.1s-10.4,1.7-13.6,5.1-4.6,8-4.6,14.3v39l3.7-3.7v4.8c0,6.3,1.5,11.2,4.6,14.6,2.9,3.4,7.5,5.1,13.6,5.1s10.4-1.7,13.6-5.1c2.9-3.4,4.4-8.3,4.4-14.6v-40.5l-3.7,3.7h0ZM433.8,124.2c-3.5,0-6.3-2.8-6.3-6.3v-19.1l-3.7,3.7v-29.2c0-3.5,2.8-6.3,6.3-6.3s6.3,2.8,6.3,6.3v16.8l3.7-3.7v31.5c0,3.5-2.8,6.3-6.3,6.3Z"/><path d="M154.4,61.8c-3.2-3.2-7.5-4.9-13.6-4.9h-19.4v11.2h19.1c3.4,0,6.1,2.7,6.1,6.1v43.4c-.2,3.1-2.8,5.5-5.9,5.6h-19.3v11.2h19.2c6.1,0,10.7-1.7,13.6-4.9,2.9-3.4,4.6-8,4.6-14.3v-39.3c0-6.3-1.5-10.9-4.4-14.1h0Z"/></g><g><path d="M633.8,112.3c.4.5.8.9,1.2,1.4l15.6-15.6c-.4-.4-.8-.9-1.2-1.3l-15.6,15.6h0Z"/><path d="M636.7,115.9c.4.5.7,1,1.1,1.5l15.8-15.8c-.4-.5-.8-1-1.2-1.4l-15.7,15.7h0Z"/><path d="M639.3,119.8c.3.5.6,1.1.8,1.6l16.3-16.3c-.3-.5-.7-.9-1-1.4l-16.1,16.1Z"/><path d="M627.4,106c.4.4.8.8,1.2,1.2l15.4-15.4c-.4-.4-.8-.8-1.2-1.1l-15.4,15.4h0Z"/><path d="M643.6,64.1h0c0,0,2.3,0,2.3,0l16.9-16.9c-.2-.6-.3-1.3-.5-1.9,0,0-18.7,18.7-18.7,18.7Z"/><path d="M656.2,64.2h2.5l5.5-5.5v-2.5l-7.9,7.9h0Z"/><path d="M641.2,124.2c.2.6.4,1.2.6,1.9l17-17c-.3-.5-.6-1-.9-1.5l-16.7,16.7h0Z"/><path d="M662.6,118.3c-.2-.7-.4-1.3-.6-2l-19.6,19.6c-.2,1.3-.4,2.4-.7,3.4l21-21h-.1Z"/><path d="M622.8,142.7l-14.6,14.6c.4.4.8.8,1.3,1.2l14.6-14.6c-.5-.3-.9-.8-1.2-1.2h0Z"/><path d="M642.4,129.4c0,.8.2,1.6.2,2.4l18.4-18.4c-.3-.6-.5-1.2-.8-1.8l-17.7,17.7h-.1Z"/><path d="M617.7,27.8c-1.9.8-3.7,1.7-5.4,2.8l-6.6,6.6c-1.1,1.7-2.1,3.5-2.9,5.5,0,0,14.9-14.9,14.9-14.9Z"/><path d="M660.8,149.8l-12.8,12.8c5.8-2.7,10-7,12.8-12.8Z"/><path d="M638.8,165.3c1.1-.2,2.2-.4,3.2-.6l20.9-20.9c.3-1.1.5-2.2.7-3.3l-24.9,24.9h0Z"/><path d="M600,56c0,.8,0,1.7,0,2.5l33.1-33.1h-2.4"/><path d="M644.2,27.1c-.7-.2-1.3-.4-2-.5l-41.6,41.6c0,.7.3,1.4.4,2.1l43.2-43.2h0Z"/><path d="M620,128.7v-2.5l-18.8,18.8c.2.7.4,1.3.6,1.9l18.2-18.2Z"/><polygon points="606.6 122.8 604 122.8 599.3 127.5 599.3 130.1 606.6 122.8"/><path d="M620.1,135.1c0-.8,0-1.6,0-2.5h0l-17.1,17c.3.6.6,1.2.9,1.7l16.3-16.3h0Z"/><path d="M613,122.8h-2.4l-11.2,11.2c0,.8,0,1.5,0,2.2l13.4-13.4h.1Z"/><path d="M642.7,51.9c.2.6.4,1.3.5,2.1l15.8-15.8c-.3-.5-.7-1-1-1.5l-15.2,15.2h0Z"/><path d="M621.3,140.3c-.2-.6-.4-1.2-.6-1.8l-15.4,15.4c.3.5.7.9,1,1.4l15-15h0Z"/><path d="M628.6,145.8c-.7-.1-1.4-.3-2-.5l-15,15c.5.4,1,.7,1.5,1l15.5-15.5Z"/><path d="M664.4,129.3c0-.8,0-1.5,0-2.3l-38.4,38.4c.7,0,1.5.2,2.2.2l36.3-36.3h0Z"/><path d="M664.2,135.9c0-.9,0-1.8.2-2.7l-32.5,32.5h2.6l29.8-29.8h0Z"/><path d="M635.5,145.4c-1,.3-2,.5-3.1.5l-16.7,16.7c.6.3,1.2.5,1.8.8l18-18Z"/><path d="M663.8,123.5c0-.7-.2-1.4-.4-2.1l-42.9,42.9c.6.2,1.3.3,2,.5l41.3-41.3h0Z"/><path d="M619.3,122.8h-2.4l-16.9,16.9c0,.7.2,1.4.4,2.1l19-19h0Z"/><path d="M622,62.3c0-.8-.2-1.6-.2-2.4l-18.2,18.2c.3.6.5,1.2.8,1.8l17.6-17.6h0Z"/><path d="M636.3,45.4c.7.2,1.3.4,1.9.7l14.7-14.7c-.5-.4-1-.7-1.5-1.1l-15,15h-.1Z"/><polygon points="600.1 122.8 599.3 122.8 599.3 123.6 600.1 122.8"/><path d="M625.4,71.8c-.3-.5-.6-1.1-.9-1.7l-16.2,16.2c.4.5.7,1,1.1,1.5l16-16h0Z"/><path d="M637.4,85.6c-.4-.4-.9-.8-1.3-1.2l-15.4,15.4c.4.4.9.8,1.3,1.2l15.4-15.4Z"/><path d="M630.9,79.2c-.4-.4-.8-.9-1.1-1.3l-15.6,15.6c.4.4.8.8,1.2,1.2l15.5-15.5h0Z"/></g><g><polygon points="742.3 97.8 741.8 95.8 727.6 110 728.1 112 742.3 97.8"/><polygon points="743.7 103 743.1 100.9 729 115.1 729.5 117.1 743.7 103"/><polygon points="745.1 108 744.5 106.1 730.4 120.2 730.9 122.1 745.1 108"/><polygon points="738.2 82.8 737.6 80.7 723.4 94.9 724 97 738.2 82.8"/><polygon points="740.9 92.7 740.4 90.8 726.2 105 726.7 106.9 740.9 92.7"/><polygon points="736.8 77.6 736.2 75.6 722.1 89.8 722.6 91.8 736.8 77.6"/><polygon points="739.5 87.7 739 85.9 724.9 100 725.4 101.9 739.5 87.7"/><polygon points="745.4 105.2 745.4 107.6 764.8 88.2 764.8 85.8 745.4 105.2"/><polygon points="745.4 66.5 745.4 69.1 764.8 49.6 764.8 47.1 745.4 66.5"/><polygon points="745.4 73 745.4 75.6 764.8 56.1 764.8 53.5 745.4 73"/><polygon points="745.4 60.1 745.4 62.6 764.8 43.1 764.8 40.7 745.4 60.1"/><polygon points="745.4 92.2 745.4 94.8 764.8 75.3 764.8 72.8 745.4 92.2"/><polygon points="745.4 79.5 745.4 81.9 764.8 62.5 764.8 60.1 745.4 79.5"/><polygon points="745.4 98.7 745.4 101.3 764.8 81.8 764.8 79.2 745.4 98.7"/><polygon points="745.4 85.8 745.4 88.3 764.8 68.8 764.8 66.4 745.4 85.8"/><polygon points="745.4 53.8 745.4 56.2 764.8 36.8 764.8 34.3 745.4 53.8"/><polygon points="727.1 42.2 726.6 40.2 695.6 71.2 695.6 73.8 727.1 42.2"/><polygon points="723 27 723 26.9 720.6 26.9 695.6 52 695.6 54.4 723 27"/><polygon points="735.4 72.6 734.9 70.6 720.7 84.8 721.2 86.7 735.4 72.6"/><polygon points="710.1 26.9 707.6 26.9 695.6 38.9 695.6 41.5 710.1 26.9"/><polygon points="725.7 37.1 725.2 35.1 695.6 64.7 695.6 67.2 725.7 37.1"/><polygon points="732.7 62.6 732.1 60.5 717.9 74.7 718.5 76.7 732.7 62.6"/><polygon points="731.7 125.2 732.3 127.1 764.8 94.6 764.8 92.1 731.7 125.2"/><polygon points="734 67.5 733.5 65.6 719.3 79.8 719.8 81.7 734 67.5"/><polygon points="764.8 114 764.8 111.5 735.9 140.4 736.4 142.4 764.8 114"/><polygon points="733.1 130.2 733.7 132.2 764.8 101 764.8 98.5 733.1 130.2"/><polygon points="734.5 135.3 735.1 137.3 764.8 107.6 764.8 105 734.5 135.3"/><polygon points="716.5 69.6 717.1 71.6 731.3 57.4 730.7 55.4 716.5 69.6"/><polygon points="715.2 163.6 715.2 161.1 712.1 164.2 714.6 164.2 715.2 163.6"/><polygon points="764.8 120.4 764.8 117.9 737.3 145.5 737.8 147.4 764.8 120.4"/><polygon points="715.2 157.2 715.2 154.6 705.6 164.2 708.2 164.2 715.2 157.2"/><polygon points="715.2 137.8 715.2 135.4 695.6 155 695.6 157.4 715.2 137.8"/><polygon points="764.8 126.8 764.8 124.3 738.6 150.5 739.2 152.5 764.8 126.8"/><polygon points="715.2 144.2 715.2 141.7 695.6 161.4 695.6 163.8 715.2 144.2"/><polygon points="715.2 150.7 715.2 148.1 699.1 164.2 701.7 164.2 715.2 150.7"/><polygon points="764.8 152.6 764.8 150 750.6 164.2 753.2 164.2 764.8 152.6"/><polygon points="764.8 159.1 764.8 156.5 757.1 164.2 759.7 164.2 764.8 159.1"/><polygon points="697.3 26.9 695.6 26.9 695.6 28.6 697.3 26.9"/><polygon points="763.7 164.2 764.8 164.2 764.8 163 763.7 164.2"/><polygon points="764.8 133.4 764.8 130.8 740 155.6 740.6 157.6 764.8 133.4"/><polygon points="715.2 131.5 715.2 128.8 695.6 148.5 695.6 151.1 715.2 131.5"/><polygon points="764.8 139.7 764.8 137.3 741.4 160.7 742 162.6 764.8 139.7"/><polygon points="764.8 146.1 764.8 143.7 744.3 164.2 746.7 164.2 764.8 146.1"/><polygon points="715.2 73.5 715.2 70.9 695.6 90.6 695.6 93.1 715.2 73.5"/><polygon points="715.2 124.9 715.2 122.4 695.6 142 695.6 144.6 715.2 124.9"/><polygon points="728.5 47.3 728 45.3 695.6 77.7 695.6 80.3 728.5 47.3"/><polygon points="745.4 47.2 745.4 49.9 764.8 30.4 764.8 27.8 745.4 47.2"/><polygon points="745.4 40.8 745.4 43.3 761.7 26.9 759.2 26.9 745.4 40.8"/><polygon points="715.2 80 715.2 77.4 695.6 97 695.6 99.7 715.2 80"/><polygon points="745.4 34.4 745.4 36.8 755.3 26.9 752.8 26.9 745.4 34.4"/><polygon points="745.4 27.9 745.4 30.5 748.9 26.9 746.3 26.9 745.4 27.9"/><polygon points="715.2 67 715.2 64.8 715.7 66.5 729.9 52.3 729.4 50.4 695.6 84.2 695.6 86.6 715.2 67"/><polygon points="715.2 86.4 715.2 83.9 695.6 103.6 695.6 106 715.2 86.4"/><polygon points="715.2 105.8 715.2 103.1 695.6 122.8 695.6 125.4 715.2 105.8"/><polygon points="715.2 118.4 715.2 116 695.6 135.6 695.6 138.1 715.2 118.4"/><polygon points="715.2 112.1 715.2 109.7 695.6 129.3 695.6 131.7 715.2 112.1"/><polygon points="715.2 99.2 715.2 96.7 695.6 116.3 695.6 118.9 715.2 99.2"/><polygon points="715.2 92.7 715.2 90.3 695.6 109.9 695.6 112.4 715.2 92.7"/></g></g></g><g id="decoy_SN_29" class="cls-3"><g><path d="M569.2,112.6c.4.4.8.9,1.2,1.3l15.5-15.5c-.4-.4-.8-.9-1.2-1.3l-15.4,15.4h0Z"/><path d="M572.1,116.1c.4.5.7,1,1.1,1.5l15.7-15.7c-.4-.5-.8-.9-1.2-1.4l-15.6,15.6Z"/><path d="M574.7,120c.3.5.6,1.1.8,1.6l16.1-16.1c-.3-.5-.7-.9-1-1.4l-15.9,15.9h0Z"/><path d="M562.9,106.3c.4.4.8.8,1.2,1.1l15.3-15.3c-.4-.4-.8-.8-1.2-1.1l-15.3,15.3Z"/><path d="M578.9,64.8h0c0,0,2.3,0,2.3,0l16.7-16.7c-.2-.6-.3-1.3-.5-1.9l-18.5,18.5Z"/><path d="M591.4,65h2.5l5.4-5.4v-2.4l-7.8,7.8h-.1Z"/><path d="M576.6,124.4c.2.6.4,1.2.6,1.9l16.9-16.9c-.3-.5-.6-1-.9-1.5l-16.5,16.5h0Z"/><path d="M597.8,118.5c-.2-.7-.4-1.3-.6-2l-19.4,19.4c-.2,1.2-.4,2.3-.7,3.3l20.8-20.8h0Z"/><path d="M558.3,142.6l-14.5,14.5c.4.4.8.8,1.2,1.2l14.5-14.5c-.4-.3-.9-.7-1.2-1.2Z"/><path d="M577.8,129.5c0,.8.2,1.5.2,2.3l18.2-18.2c-.3-.6-.5-1.2-.8-1.7l-17.6,17.6h0Z"/><path d="M553.4,28.9c-1.9.8-3.7,1.7-5.3,2.8l-6.5,6.5c-1.1,1.6-2.1,3.5-2.9,5.4,0,0,14.7-14.7,14.7-14.7Z"/><path d="M596,149.7l-12.6,12.6c5.7-2.6,9.9-6.9,12.6-12.6Z"/><path d="M574.2,165c1.1-.2,2.2-.4,3.2-.6l20.7-20.7c.3-1.1.5-2.2.7-3.3l-24.6,24.6h0Z"/><path d="M535.8,56.8v2.5l32.8-32.8h-2.4"/><path d="M579.6,28.2c-.6-.2-1.3-.4-2-.5l-41.2,41.2c0,.7.3,1.4.4,2.1l42.8-42.8Z"/><path d="M555.6,128.8v-2.5l-18.7,18.7c.2.6.4,1.3.6,1.9l18-18h.1Z"/><polygon points="542.4 123 539.8 123 535.1 127.6 535.1 130.2 542.4 123"/><path d="M555.7,135.1c0-.8,0-1.6,0-2.4h0l-16.9,16.9c.3.6.6,1.2.9,1.7l16.2-16.2h-.1Z"/><path d="M548.6,123h-2.4l-11.1,11.1c0,.8,0,1.5,0,2.2l13.3-13.3h.1Z"/><path d="M578.1,52.8c.2.6.4,1.3.5,2l15.6-15.6c-.3-.5-.7-1-1-1.5,0,0-15.1,15.1-15.1,15.1Z"/><path d="M556.9,140.2c-.2-.5-.4-1.1-.6-1.8l-15.2,15.2c.3.5.7.9,1,1.4l14.8-14.8h0Z"/><path d="M564.1,145.7c-.7-.1-1.4-.3-2-.5l-14.8,14.8c.5.3,1,.7,1.5,1l15.3-15.3Z"/><path d="M599.5,129.4c0-.8,0-1.5,0-2.3l-38,38c.7,0,1.5.2,2.2.2l36-36h-.1Z"/><path d="M599.4,136c0-.9,0-1.8.2-2.7l-32.2,32.2h2.6l29.5-29.5h0Z"/><path d="M571,145.3c-1,.3-2,.5-3.1.5l-16.5,16.5c.6.3,1.2.5,1.8.8l17.8-17.8Z"/><path d="M599,123.7c0-.7-.2-1.4-.4-2.1l-42.5,42.5c.6.2,1.3.3,2,.5,0,0,40.9-40.9,40.9-40.9Z"/><path d="M554.9,123h-2.4l-16.8,16.8c0,.7.2,1.4.4,2.1l18.8-18.8h0Z"/><path d="M557.6,63.1c0-.8-.2-1.5-.2-2.3l-18,18c.3.6.5,1.2.8,1.7l17.4-17.4Z"/><path d="M571.8,46.4c.7.2,1.3.4,1.9.7l14.5-14.5c-.5-.4-1-.7-1.5-1.1l-14.9,14.9Z"/><polygon points="535.9 123 535.1 123 535.1 123.8 535.9 123"/><path d="M560.9,72.5c-.3-.5-.6-1.1-.9-1.6l-16,16c.3.5.7,1,1.1,1.5l15.9-15.9h0Z"/><path d="M572.8,86.1c-.4-.4-.9-.8-1.3-1.2l-15.3,15.3c.4.4.9.8,1.3,1.2l15.3-15.3Z"/><path d="M566.4,79.8c-.4-.4-.8-.8-1.1-1.3l-15.4,15.4c.4.4.8.8,1.2,1.2l15.4-15.4h-.1Z"/><g><path d="M325.7,83.6v-7.4c0-6.2-1.4-10.8-4.3-14.2-3.1-3.4-7.4-5-13.5-5s-10.3,1.7-13.5,5c-3.1,3.4-4.6,7.9-4.6,14.2v39.6c0,6.2,1.4,11.1,4.6,14.4,2.9,3.4,7.4,5,13.5,5s10.3-1.7,13.5-5c2.9-3.4,4.3-8.2,4.3-14.4v-10.1h-11.3v12.4c0,3.5-2.8,6.2-6.2,6.2s-6.2-2.8-6.2-6.2v-44.2c0-3.5,2.8-6.2,6.2-6.2s6.2,2.8,6.2,6.2v9.7s11.3,0,11.3,0Z"/><polyline points="206.9 123.4 206.9 134.4 239.8 134.4 239.8 123.4 206.9 123.4"/><polyline points="206.9 101.4 235.5 101.4 235.5 90.6 206.9 90.6 206.9 101.4"/><polyline points="239.8 68.6 239.8 57.8 206.9 57.8 206.9 68.8 239.8 68.8"/><polygon points="469.5 109 469.5 134.4 481.5 134.4 481.5 109 496.7 57.8 485.1 57.8 476 92.6 475.8 92.6 466.6 57.8 454.1 57.8 469.5 109"/><path d="M411.8,79.4v-3.2c0-6.2-1.4-10.8-4.3-14.2-3.1-3.4-7.4-5-13.5-5s-10.3,1.7-13.5,5c-3.1,3.4-4.6,7.9-4.6,14.2v38.6l3.7-3.6v4.7c0,6.2,1.4,11.1,4.6,14.4,2.9,3.4,7.4,5,13.5,5s10.3-1.7,13.5-5c2.9-3.4,4.3-8.2,4.3-14.4v-40.1l-3.7,3.6ZM397.9,124.4c-3.5,0-6.2-2.8-6.2-6.2v-18.9l-3.7,3.6v-29c0-3.5,2.8-6.2,6.2-6.2s6.2,2.8,6.2,6.2v16.7l3.7-3.6v31.2c0,3.5-2.8,6.2-6.2,6.2Z"/><path d="M155.3,62.6c-3.1-3.1-7.4-4.8-13.5-4.8h-19.2v11.1h18.9c3.3,0,6,2.7,6,6v43c-.2,3.1-2.7,5.5-5.8,5.6h-19.1v11.1h19c6,0,10.6-1.7,13.5-4.8,2.9-3.4,4.6-7.9,4.6-14.2v-38.9c0-6.2-1.4-10.8-4.3-13.9v-.2Z"/></g><g><polygon points="669 98.2 668.4 96.3 654.4 110.3 654.9 112.3 669 98.2"/><polygon points="670.3 103.3 669.8 101.3 655.8 115.3 656.3 117.4 670.3 103.3"/><polygon points="671.7 108.3 671.2 106.4 657.2 120.4 657.7 122.3 671.7 108.3"/><polygon points="664.9 83.3 664.3 81.3 650.3 95.3 650.9 97.4 664.9 83.3"/><polygon points="667.6 93.2 667.1 91.3 653 105.3 653.6 107.2 667.6 93.2"/><polygon points="663.5 78.3 663 76.3 648.9 90.3 649.5 92.3 663.5 78.3"/><polygon points="666.2 88.3 665.7 86.4 651.7 100.4 652.2 102.3 666.2 88.3"/><polygon points="672 105.6 672 108 691.3 88.7 691.3 86.3 672 105.6"/><polygon points="672 67.2 672 69.8 691.3 50.5 691.3 48 672 67.2"/><polygon points="672 73.6 672 76.2 691.3 57 691.3 54.4 672 73.6"/><polygon points="672 60.9 672 63.3 691.3 44.1 691.3 41.7 672 60.9"/><polygon points="672 92.7 672 95.2 691.3 75.9 691.3 73.4 672 92.7"/><polygon points="672 80.1 672 82.5 691.3 63.2 691.3 60.9 672 80.1"/><polygon points="672 99.1 672 101.7 691.3 82.4 691.3 79.8 672 99.1"/><polygon points="672 86.4 672 88.8 691.3 69.5 691.3 67.1 672 86.4"/><polygon points="672 54.6 672 57 691.3 37.8 691.3 35.4 672 54.6"/><polygon points="653.9 43.2 653.4 41.2 622.7 71.8 622.7 74.4 653.9 43.2"/><polygon points="649.8 28.1 649.8 28.1 647.5 28.1 622.7 52.8 622.7 55.2 649.8 28.1"/><polygon points="662.1 73.2 661.6 71.3 647.6 85.4 648.1 87.3 662.1 73.2"/><polygon points="637.1 28.1 634.6 28.1 622.7 39.9 622.7 42.5 637.1 28.1"/><polygon points="652.5 38.1 652 36.1 622.7 65.4 622.7 67.9 652.5 38.1"/><polygon points="659.4 63.3 658.9 61.3 644.8 75.3 645.4 77.4 659.4 63.3"/><polygon points="658.5 125.3 659 127.2 691.3 95 691.3 92.6 658.5 125.3"/><polygon points="660.8 68.3 660.3 66.4 646.2 80.4 646.7 82.3 660.8 68.3"/><polygon points="691.3 114.2 691.3 111.8 662.6 140.4 663.2 142.3 691.3 114.2"/><polygon points="659.9 130.3 660.4 132.3 691.3 101.4 691.3 98.9 659.9 130.3"/><polygon points="661.2 135.3 661.8 137.4 691.3 107.9 691.3 105.3 661.2 135.3"/><polygon points="643.5 70.3 644 72.3 658 58.2 657.5 56.3 643.5 70.3"/><polygon points="642.1 163.3 642.1 160.9 639.1 164 641.5 164 642.1 163.3"/><polygon points="691.3 120.5 691.3 118.1 664 145.4 664.5 147.3 691.3 120.5"/><polygon points="642.1 157 642.1 154.4 632.6 164 635.2 164 642.1 157"/><polygon points="642.1 137.8 642.1 135.4 622.7 154.9 622.7 157.3 642.1 137.8"/><polygon points="691.3 127 691.3 124.4 665.3 150.4 665.9 152.3 691.3 127"/><polygon points="642.1 144.1 642.1 141.7 622.7 161.1 622.7 163.6 642.1 144.1"/><polygon points="642.1 150.5 642.1 148 626.2 164 628.7 164 642.1 150.5"/><polygon points="691.3 152.4 691.3 149.9 677.2 164 679.7 164 691.3 152.4"/><polygon points="691.3 158.9 691.3 156.3 683.6 164 686.2 164 691.3 158.9"/><polygon points="624.4 28.1 622.7 28.1 622.7 29.8 624.4 28.1"/><polygon points="690.1 164 691.3 164 691.3 162.8 690.1 164"/><polygon points="691.3 133.4 691.3 130.8 666.7 155.4 667.3 157.4 691.3 133.4"/><polygon points="642.1 131.5 642.1 128.9 622.7 148.4 622.7 151 642.1 131.5"/><polygon points="691.3 139.7 691.3 137.3 668.1 160.5 668.6 162.4 691.3 139.7"/><polygon points="691.3 146 691.3 143.6 670.9 164 673.3 164 691.3 146"/><polygon points="642.1 74.1 642.1 71.6 622.7 91.1 622.7 93.6 642.1 74.1"/><polygon points="642.1 125.1 642.1 122.5 622.7 142 622.7 144.5 642.1 125.1"/><polygon points="655.3 48.2 654.8 46.2 622.7 78.3 622.7 80.9 655.3 48.2"/><polygon points="672 48.2 672 50.7 691.3 31.5 691.3 28.9 672 48.2"/><polygon points="672 41.8 672 44.3 688.2 28.1 685.7 28.1 672 41.8"/><polygon points="642.1 80.6 642.1 78 622.7 97.5 622.7 100.1 642.1 80.6"/><polygon points="672 35.4 672 37.9 681.8 28.1 679.4 28.1 672 35.4"/><polygon points="672 29 672 31.6 675.5 28.1 672.9 28.1 672 29"/><polygon points="642.1 67.7 642.1 65.5 642.6 67.3 656.7 53.2 656.1 51.3 622.7 84.7 622.7 87.2 642.1 67.7"/><polygon points="642.1 86.9 642.1 84.5 622.7 103.9 622.7 106.3 642.1 86.9"/><polygon points="642.1 106.1 642.1 103.5 622.7 122.9 622.7 125.5 642.1 106.1"/><polygon points="642.1 118.6 642.1 116.2 622.7 135.7 622.7 138.1 642.1 118.6"/><polygon points="642.1 112.3 642.1 110 622.7 129.4 622.7 131.8 642.1 112.3"/><polygon points="642.1 99.6 642.1 97.1 622.7 116.5 622.7 119.1 642.1 99.6"/><polygon points="642.1 93.2 642.1 90.8 622.7 110.2 622.7 112.6 642.1 93.2"/></g><g><path d="M727,32.1c-2.4,0-4,1.3-4,4.8v5.2h-7.2v-4.7c0-7.8,3.8-12.2,11.3-12.2s11.4,4.4,11.4,12.2c0,15.2-15.1,20.9-15.1,28.9v1h14.4v7h-22v-5.9c0-14.2,15-16.6,15-30.6,0-4.5-1.5-5.7-3.8-5.7h0Z"/><path d="M771.7,62.1c0,8.1-3.7,12.6-11.6,12.6s-11.4-4.4-11.4-12.2v-1.3h7.2v1.7c0,3.5,1.5,4.8,4,4.8s4.2-1.3,4.2-5.9v-8.8c-1.3,2.8-3.6,4.3-7.1,4.3-5.6,0-8.5-4-8.5-11.1v-8.8c0-7.8,4.1-12.2,11.5-12.2s11.6,4.4,11.6,12.2v24.8h0ZM764,45.6v-8.7c0-3.5-1.5-4.7-4-4.7s-4,1.3-4,4.7v8.7c0,3.5,1.5,4.8,4,4.8s4-1.3,4-4.8Z"/></g></g></g><g id="tues" class="cls-3"><g id="Symbol_6_0_Layer0_0_FILL"><path d="M498.9,121.4l21.3-40.5h-54.3l-21.6,40.5h54.6M626.9,170l30.7-30.7-63.9-48.9,59.6-58.7h-59.4l-65.2,65.3,43.8,32.5h-132.4l-21.6,40.5h208.5M537.3,72.2l40.4-40.5h-151.1l-50.8,95.3h-25l29.2-54.8h-13.8l21.6-40.5h-153.2l-21.6,40.5h49.9l-52,97.8h50l52-97.8h17.1l-52,97.8h128.2l52-97.8h79.1Z"/></g></g><g id="capra" class="cls-3"><g><path d="M211.9,126.7l7.2-5.6h-65.3v-46.2h102.8v-23.1H113.9v92h76c10.1-7.7,17.5-13.4,22.1-17.1"/><polyline points="438.9 88.8 438.9 111.4 529 111.4 529 51.8 388.3 51.8 388.3 143.9 428.2 143.9 428.2 74.9 489.3 74.9 489.3 88.8 438.9 88.8"/><path d="M324.9,51.8c-1.8,0-3.6.6-5.2,1.9-12.5,9.8-43.4,34.1-92.8,73l-21.7,17.1h47.9c.9,0,1.8-.4,2.9-1.3,13.2-10.4,35.6-28.1,67.1-53.1l12.3-9.6v41.3h-37.9c.3.3,4.2,3.9,11.6,10.7,4.5,4.1,8.2,7.5,11.1,10.1,1.4,1.2,3,1.8,4.7,1.8,7.1,0,22.9.1,47.5.1h2.7V51.8h-50.3"/><path d="M673.2,75.3c.3-.2.7-.6,1-1.1.2-.5.4-1,.4-1.5v-20.9h-132.5v92h39.6v-68.9h52.8v30.6c0,0,4.8-3.6,13.8-10.8,10.8-8.6,19.1-15.1,24.9-19.4"/><path d="M721.3,51.8c-1.8,0-3.5.6-5.1,1.9-20.6,16.2-51.5,40.5-92.7,73l-21.7,17.1h47.9c.9,0,1.8-.4,2.9-1.3l79.4-62.7v41.3h-37.9c11.6,10.7,19.2,17.6,22.8,20.8,1.4,1.2,3,1.8,4.7,1.8h50.2c0,.1,0-91.9,0-91.9h-50.5Z"/></g></g><g id="jeffsy" class="cls-3"><path id="jeffsy-2" d="M214.5,47.9l-29.9,90.6,16.6,25.3,38.2-115.8h-24.9ZM271.6,55.5h32.4l-14.5,44h-32.4l14.5-44ZM249.1,47.9l-29.9,90.6h82.3l7.8-23.9h-24.9l-5.3,16.3h-32.4l7.8-23.9h57.3l19.5-59.1h-82.3,0ZM673.9,47.9l-16.9,51.7h-32.4l17-51.7h-25l-19.5,59.2h57.4l-10.4,31.3,16.6,25.3,38.2-115.8h-25,0ZM524.2,47.9l-19.5,59.2h57.3l-7.8,23.8h-32.4l5.3-16.2h-25l-7.8,23.8h82.3l12.8-38.9h-57.4l14.6-44.1h32.4l-12,36.5h24.9l14.5-44.1h-82.3.1ZM340.9,47.9l-29.8,90.6,16.6,25.3,8.3-25.3h32.4l2.5-7.6h-32.4l24.8-75.4h32.4l-16.9,51.7h24.9l19.5-59.2h-82.3,0ZM432.6,47.9l-29.9,90.6,16.7,25.3,8.3-25.3h32.4l2.5-7.6h-32.4l24.8-75.4h32.4l-17,51.7h25l19.5-59.2h-82.3Z"/></g><g id="izzo" class="cls-3"><g><path d="M392.9,5.4l.4,1.5.2.3c.1,0,.3.3.7.4.1,0,.3-.3.6-.4v-.4l-.2-.7c-.3-1-.6-1.7-.7-2-.1-.2-.2-.3-.3-.3-.3,0-.4,0-.6.4-.1.3-.2.6-.2.7s0,.3.1.4h0Z"/><path d="M567,43.3c.6.3,1.4.4,2.6.6l8.2,1.2c1.1,0,1.9,0,2.3-.3-1.8-1.6-3.9-2.9-6.2-4-.9-.4-1.7-.7-2.5-.9-1.2,0-2,0-2.6-.3s-1-.3-1.3-.3c-.5,0-.9,0-1.3,0-.4,0-.7.4-.9.9s-.3.9,0,1.3c.2.8.8,1.4,1.7,1.9h0Z"/><path d="M559.9,19.4h.8l2.8-.4c.5-.1.9-.2,1.1-.3.4-.2.6-.6.6-.9-.6-.5-1.2-.7-1.9-.7h0c-1,.2-2,.4-3.1.8l-.6.3c0,.1-.2.3-.3.5v.5c0,.2.3.4.6.4v-.2Z"/><path d="M599,71.2h1.5c.6,0,.9,0,1.1,0s.2-.3.2-.5l.3-1.1c0-.4.2-.8.2-1,0-.6-.4-1-1.1-1.2-.4,0-.9,0-1.3,0-.4.2-.8.5-1,1,0,.2-.2.6-.3,1.1-.2.2-.3.4-.3.5v.4c.2.4.4.6.6.7h0Z"/><path d="M567.3,19.8h1c.4-.5.6-.9.6-1.3s-.2-.5-.6-.8h-.2c0-.1-.9-.1-.9-.1h-.3c-.4.5-.6.9-.6,1.3s.3.5.6.9h.4Z"/><path d="M587.7,58.4l1.5,1.4c.4.4.6.7.6,1s0,.3-.3.6c-.2.3-.3.4-.3.6.4.3.9.4,1.4.4s1,0,1.4-.3.8-.6,1-1.1c.2-.4.3-1,.3-1.5s-.3-1-.7-1.9c-.7-1.2-1.3-2-1.7-2.6-.7-.9-1.6-1.5-2.4-1.8l-.6.2c-.9.3-1.4.9-1.7,1.7-.3.9-.2,1.6.3,2.3.2.3.5.6.9,1h.3Z"/><path d="M387,6.5l1,1c.1,0,.2.2.3.2h2.3c.3-.2.6-.4.7-.7-.2-.3-.6-.6-1.2-.8-.6-.2-1.1-.4-1.3-.6l-.7-.6c-.2-.2-.5-.3-.8-.3-.5,0-.9,0-1,.4v.7c.2.3.4.5.5.6h.2Z"/><path d="M501.4,192.8c-1-.7-1.9-1.1-2.6-1.2-.7,0-1.4.1-2.2.6-.4.2-.8.6-1.2.9-.6.6-1,1-1.2,1.3-.3.6-.6,1-.7,1.3-.4.4-.6.7-.6.9-.1.3,0,.6.1.9.1.3.4.5.7.6.6.2,1.2.1,1.8-.1.2-.1.5-.3.8-.4.2-.1.4-.3.8-.5.6-.4,1.1-.5,1.5-.5s.7.2,1.3.6l1.6,1.1c.7.4,1.2.7,1.7.7s.9-.2,1.6-.6c.7-.4,1-.9,1-1.3s-.2-.6-.6-.9c-1.2-1.2-2.5-2.3-3.7-3.1v-.3Z"/><path d="M296.8,155.2c-.1.1-.2.3-.2.5s0,.3.1.4c0,.3.1.8,0,1.6,0,.7,0,1.2.1,1.5.2,0,.4-.1.5-.4v-2.7c0-.6,0-1-.2-1.2-.2,0-.4,0-.5.2h.2Z"/><path d="M329.3,10c.2,0,.4,0,.7-.3.6-.6,1-1,1.3-1.3l1-1.4c.4-.6.7-1,.8-1.3.2-.6.2-1.4-.2-2.5-.1-.3-.2-.5-.3-.7.1,0,.3.3.4.6.5,0,.9,0,1.1-.6l.3-.7c.1-.4.2-.7.2-.8s-.1-.3-.4-.7C334.1,0,333.9,0,333.8,0h-.4c-.4.1-.7.2-.9.4-.1.2-.2.5-.2.9v.4c0-.3-.1-.6-.1-.9h-.3c-.1,0-.2.1-.2.3v.8c0,.3-.3.6-.6,1-.1.2-.3.8-.4,1.7-.1.7-.4,1.5-.8,2.2-.4.7-.7,1.1-.9,1.4-.2.6-.2,1.2,0,1.6,0,.1.2.3.4.3h-.1Z"/><path d="M484.9,189.2l-.6-.4c-.3-.4-.6-.7-.7-.9-.6-.6-1.3-.8-2.1-.7,0,0,0,.1-.1.1h-.3c-.3,0-.5,0-.8.3s-.6.5-.7.6c-.4.3-.7.5-.9.7-.3.3-.5.6-.6.9,0,.5.2.9.9,1.2.3.1.8.3,1.6.4.2,0,.6.3,1.3.6.6.3,1,.4,1.4.4s.8,0,1.2-.3c.4-.2.7-.5.9-.9.2-.4.3-.7.2-1.2,0-.4-.2-.8-.5-1.1l-.2.3Z"/><path d="M736.3,93.2c0,0-.2-.3-.3-.4-.3-.2-.7-.3-1.3-.3h-11.9c-4.8-.3-9.9-.6-15.3-.9-.5,0-1.2-.2-2-.2h-2.1c-11.3-.5-23.9-1.1-37.8-1.7-.4,0-.9,0-1.3,0-21.5-1.7-35.2-2.7-41.2-3-7-.3-15.4-.4-25.4-.4h-2.7c0-2.7-.2-4.7-.4-6.1-1.1-8.2-5.4-16.3-12.9-24.4-3.8-4-7.2-5.6-10.2-4.7-.6-.8-1.3-1.6-2.1-2.2-.2-1-.9-1.8-1.9-2.6-1.1-.8-2.5-1.4-4.2-1.8-2.9-.7-6-.9-9.3-.3-3,.4-6,1.4-9,2.8-2.6,1.2-5.2,2.7-8.1,4.8-.8.6-1.7,1.2-2.7,2-.7.3-1.3.6-1.9.9-3.9,2-7.2,4.2-10,6.5-2.2,1.8-5.1,4.8-8.9,8.9l-8.7,9.5c-1.5,1.7-2.8,3.1-3.8,4.3-15.3-1.1-30.6-2.5-45.9-4.2-.5,0-1.1,0-1.6-.2,16.7-12.9,33.7-22.2,51.1-27.8,2.5-.8,4.5-1.1,5.9-.7.4,0,1,.3,1.7.6.7.2,1.3.3,1.7.2.7,0,1.4-.5,2.1-1.2.4-.4.9-1.1,1.6-2,2.2-3.2,5.8-6.6,10.7-10,7.9-5.5,12-8.4,12.2-8.6,1.6-1.4,2.9-2.7,3.8-4,.4-.2.8-.4,1-.6.5-.3,1.2-.9,2-1.7.9-.8,1.5-1.3,2-1.7.2-.1.7-.4,1.6-.9.6-.4,1.1-.7,1.4-1,.4-.4.7-1,.8-1.6,0-.7,0-1.2-.4-1.6-.3-.3-.8-.5-1.4-.5h-1.7c-1.1,0-2.6-.7-4.6-1.8l-2.6-1.6c-.2-.3-.4-.6-.6-.9-.8-1.2-1.6-2.1-2.6-2.7-2-1.4-4.9-2-8.8-1.9-1.1,0-5.1.5-11.8,1.3-4.8.6-8.7.6-11.7.1-1.8-.3-4.2-1-7.1-2-3.4-1.2-5.8-1.9-7.1-2.2-2.4-.6-5.2-1-8.3-1.1h-8.5l-55.2,1c-.2,0-.4,0-.6,0-2-.4-3.6-.3-4.6.2h-6.4c-1.7,0-2.6.6-2.8,1.5,0,.5.1.9.6,1.3.4.4.9.7,1.4.9,4.3,1.6,8.8,2,13.3,1.2-.9-1-1.9-1.7-3.3-2.2h4.3c17.9,3,36,3.8,54.3,2.3,1.6-.1,2.7-.1,3.4-.1,1.3,0,2.3.3,3.2.7,1,.4,2,1.3,3,2.5.6.7,1.4,1.7,2.6,3.2,2.3,2.7,5.1,4.6,8.5,5.8-17.4,11.8-30.3,20.7-38.5,26.5-14.4,10-27.1,19.2-38.2,27.7h0c-7.2-.4-13.7-.6-19.6-.4l50-44c.5-.4.9-.9,1.1-1.4.3-.6.3-1.1,0-1.6-.2-.3-.6-.4-1.1-.6-.7-.1-1.1-.3-1.3-.4-.6-.4-1-1.2-1.2-2.4-.2-1.5-.4-2.5-.7-2.9-.6-.8-1.4-1.2-2.7-1.1-.8,0-1.9.2-3.3.6-3.4,1-6.8,1.1-10.2.4.1,0,.2.1.3.2-.5,0-1-.2-1.6-.3-1.9-.4-3.1-.6-3.7-.7-2.2-.4-4.7-.6-7.7-.6s-11.7.6-23.8,1.9c-9.8,1-17.7,1.2-23.7.4-2.5-.4-4.4-.6-5.6-.8-.6,0-1-.1-1.6-.2,1.6-.8,2.7-1.6,3.4-2.3,0,0,.3-.4.9-1.3.3-.5.7-.9,1-1.1.3-.1.7-.4,1.2-.7.4-.3.7-.6.9-1-.3,0-.6,0-.9.3-.4.3-.6.5-.9.6-.3.1-.6.3-1,.3s-.8.1-1,.2c-.6.1-1.3.4-2.2.8-1.1.4-1.8.7-2.2.9-.6.1-1,.3-1.3.3-.5.1-.9.3-1.2.6-.4.3-.7.6-.9,1-.2.4-.2.8-.1,1.2-2,0-4.9.6-8.8,1.4l-4.3,1c-.3,0-.6-.1-.9-.2,0-.1,0-.3-.1-.4-.2-.5-.5-.8-.9-.8s-.4,0-.6.1c-.2.2-.4.3-.6.3-.8.4-1.7.5-2.8.1-1.2-.5-2.1-.8-2.7-1-1.3-.3-2.3-.1-3,.6-.4.6-.6,1.3-.4,2.1,0,.4.2.7.3,1,.2.3.6.5,1.1.7.4.1.9.2,1.7.3.7,0,1.3.1,1.7.3.3.1.7.3,1.2.4h.1c.1.4.4,1.2.7,2.2-.3,0-.7,0-1.1.2s-.8.4-1,.4c-1.2.4-1.9.6-1.9.6-.3.1-.6.4-.8.7-.2.3-.3.6-.2.9,0,.4.3.7.8,1,.2,0,.6.3,1.2.4.9.3,1.6.6,2.3,1,.8.4,1.3.6,1.4.6h.1c0,.9,0,1.7-.2,2.6-.3,2.8.1,4.6,1.3,5.2,1,.5,2,.4,3.1-.4.4-.3,1.2-1,2.3-2.2,2-2,4-3.3,6.2-3.9,1-.3,2.3-.4,4-.4s3.4,0,4,0c1,0,2.3-.4,3.9-.9,2-.6,3.3-1,3.9-1.1,2-.4,4.9-.7,8.4-.7,5.9,0,10.9.3,15,.9,5.4.8,10.1,2.2,14.2,4.2.5.2,1.2.6,2.2,1.1.9.4,1.6.7,2.3.9.4,0,.8.2,1.2.3.3.5.4,1,.3,1.4,0,.9-.7,1.9-2,3-7.5,6.8-15.7,14.7-24.5,23.8-1.7,1.8-3.7,3.9-6,6.3h-5.3c-1.7,0-4.1-.3-7.2-.7-3.3-.4-5.7-.6-7.2-.7-3.6-.3-7.6-.3-12,0-3,0-7,.4-12,.8-9.1.8-17.3,1.5-24.7,2.2v-2h0c.7-1.1,1.1-1.9,1.4-2.5.6-1,1-2.5,1.5-4.3l6.8-25.5c.9-3.3,1.4-5.7,1.7-7.2s.3-2.2.4-3.3l.7-5.9c.2-1.4,0-2.5-.6-3,0,0-.1-.1-.2-.1,1.2-3,1.2-5.6,0-7.6-.4.6-1,1.5-1.5,2.8l-2.2,5.1c-2,1-3.8,3.3-5.3,6.8-.9,2.1-2.3,6.3-4.3,12.7.3-1.7.5-3.3.8-5,.3-2,0-3.1-1.1-3.5-.4,0-.8,0-1.3,0s-.8.5-1,.9c-.3.4-.6,1.3-.8,2.6-2,13.5-4.9,27-8.7,40.4-5.7.5-10.7.9-14.9,1.2-20.5,1.5-38.3,2-53.3,1.7-1.7,0-3,0-4,.2-1.4.3-2.6.9-3.3,1.7h4.9c-12.3,2.3-24.7,4-37.2,5.4-1.3,0-2.9,0-4.6,0-6.1-.2-10.9-.2-14.4,0-2.3,0-10.1,1.1-23.2,2.9-9.4,1.3-17.1,1.5-23.1.7-1.1-.2-1.7,0-1.8.7,7.8.9,19.7.5,35.7-1,8.9-.9,16.6-1.3,23-1.4,2.6,0,5.4.2,8.3,0,1.5,0,3,.2,4.3.4,3,.4,5.2.7,6.6.9,2.6.3,4.8.3,6.7,0l-7.8-1.7h0c4.7-.5,11.5-1.3,20.4-2.5,9.5-1.3,16.7-2.1,21.6-2.4,8-.6,15.2-.4,21.5.4,2.1.3,5.3.8,9.6,1.6,4.2.8,7.4,1.3,9.6,1.6,3.7.5,8,.7,12.6.7h0c-.1.8-.3,1.6-.3,2.3v3.3c0,1.3-.3,2.3-.6,3.1-.2.5-.7,1.3-1.3,2.2-.6.9-1.1,1.7-1.3,2.2-.3.9-.5,2.5-.6,4.8,0,2.1-.4,3.6-1,4.6-.3.4-.9,1.1-1.8,1.8s-1.5,1.4-1.8,1.9c-.9,1.3-1,3.3-.3,5.9.8,3.2,1.1,5.3.9,6.4,0,.5-.3,1.2-.6,2.1-.3.9-.6,1.6-.6,2.1-.1.9-.1,1.9,0,3.2.1.7.3,1.7.6,3.2.2,1.4.3,3.7.3,6.8.1,2.6.8,4.7,1.9,6.1.6.9,1.3,1.2,2,1,.4-.1,1-.6,1.5-1.4.4-.7.9-1.4,1.3-2.1v.6c-.2.2-.3.4-.4.5-.3.3-.4.7-.4,1.2s.2.9.5,1.2c.1,0,.4,0,.9-.1h.4c0,.1.1.5.3,1.1h.6c.1-.3.2-.4.2-.5v-1.2c-.1-.1-.2-.3-.3-.4h0v-2.9c0-.1-.2-.4-.4-.9-.1-.2-.2-.3-.3-.3,1.5-2.2,3.2-4.3,4.9-6.3.9-1,1.7-1.9,2.6-2.5.1,0,.2-.1.3-.2.4-.3.9-.6,1.3-.8l1.7-.7c.7-.3,1.2-.6,1.6-.9.7-.6,1.2-1.4,1.6-2.5,0-.1.3-1.1.8-3,.6-1.9.9-3.3,1.2-4.2.4-1.6.6-3,.6-4.2s-.2-1.8-.5-3c-.4-1.6-.7-2.6-.7-3.1-.3-1.7-.2-4.2.2-7.6.7-6.4,1.2-12.8,1.4-19.2,4.9-.3,11.3-.6,19.1-1,9.2-.4,17-.7,23.6-.7s9.6,0,15.3.3c-2.1,2.3-4.3,4.6-6.6,7.2-3.9,4.3-6.9,7.6-8.9,10-3.2,3.8-5.9,7.3-8.1,10.6-3.3,5.3-5.9,9.3-7.7,11.8-3.1,4.5-6.3,7.8-9.5,10-2.5,1.7-4.1,2.9-4.8,3.5-1.6,1.5-2.3,3.1-2.1,4.8,0,.9.4,1.8,1.1,2.7.4.6,1,1.3,1.9,2.3,2.3,2.3,4,4.1,5.2,5.2,2,1.9,3.9,3.4,5.7,4.6,2.7,1.8,5.9,3.3,9.7,4.7,2.4.9,5.8,1.9,10.3,3.2l22.3,6.1c9.7,2.6,17.1,4.4,22.3,5.4,8.3,1.6,15.9,2.5,22.7,2.5s4.1,0,5.8-.3l11.8,2c-.2,1.2,0,2.4.8,3.6.7,1.1,1.6,1.9,2.8,2.5,1,.5,2.2.8,3.6,1,.8.1,2.1.2,3.8.2h12.1c.9,0,1.7,0,2.3-.3.8-.3,1.3-.8,1.4-1.5,0-.4,0-.9-.4-1.3-.3-.4-.7-.7-1.2-.9-.4-.1-1.4-.3-2.9-.3s-2.7-.3-4.2-.8c-.6-.1-2-.6-4.1-1.4-5.5-1.9-11.5-3.6-18.3-5,.4-.2.7-.5,1.1-.7h-4.8c-4.8-.9-10.5-1.8-17-2.6-3.5-.4-6-.8-7.4-1.1-2.8-.4-5.2-1-7.3-1.7-3.5-1.1-7.1-2.7-10.8-4.9-2.9-1.7-6.2-4-9.9-6.8-8.7-6.6-16.9-13.9-24.7-21.9-.2-1.4-.2-3,0-4.7.3-2.8,1.3-6.3,2.9-10.7l7-19c.9-2.3,1.7-4,2.3-5,1-1.5,2.6-3,4.7-4.3,1.2-.8,3.1-1.9,5.6-3.4,1.4-.9,3.3-2.3,5.7-4.3,1,0,2,0,3.1,0l14.9.9c-1.6,1.6-3.2,3.2-4.5,4.7-2.7,3-5.2,6.2-7.6,9.7-3,3-5.8,6.2-8.3,9.4-1.2,1.5-2.1,2.6-2.7,3.1-.4.4-1.1.9-2,1.6-.9.6-1.6,1.2-2,1.6-.7.6-1.2,1.4-1.4,2.2-.4.9-.4,1.7-.2,2.5.1.6.6,1.3,1.2,2.3.1.2.3.6.4,1,.2.4.4.7.6.9.5.5,1.3.7,2.5.7h.3c.2.2.4.3.7.5,1.5.9,3.3,1.7,5.3,2.3.1,0,.3.1.5.1.2.1.4.3.6.4,1.8,1.3,4.1,2.5,7,3.6.6.6,1.4,1,2.5,1.4.7.3,1.4.5,2.2.7-.4.2-.8.4-1,.7.1.6.5,1,1.1,1.2.3.1.8.2,1.4.3.2,0,.4.3.8.5.3.1.6.3,1.2.4.6.1,1,.2,1.2.3.4.1.9.4,1.6.9.7.3,1.3.4,1.7.1.1-1.1-.2-2-1-2.6-.2-.1-.4-.3-.7-.4,5.9,1.7,10.1,3.3,12.6,4.7,2.3,1.3,5.7,3.9,10.1,7.7,4.2,3.6,7.6,6.1,10.2,7.4,2.6,1.3,5.7,2.4,9.4,3.2,1.6.3,4.8.9,9.8,1.7,10.4,1.6,20.8,3.9,31.3,6.8,2.8.8,4.8,1.3,5.9,1.6,2.2.4,4.3.7,6.1.6.4,0,.9,0,1.3-.1,0,0,.1.1.2.1-1.4,1.3-1.9,2.4-1.7,3.4.4,1.4,2.3,1.8,5.4,1,3.5-.9,7.4-.6,11.8.9,2.2.7,6,2.4,11.4,5,8.3,4.1,16.8,7.5,25.7,10.1.3.3.7.7,1,1.1,2.3,2.3,5.1,3.6,8.2,4-.4-.4-1-1-1.9-1.8l-2-1.8c2.6.7,5.3,1.3,8.1,1.9,3.5.7,6.3,1.1,8.5,1.2,3.1.1,5.9-.4,8.2-1.4-9.7-1.6-17-3-21.8-4.1-3.2-.7-6.3-1.5-9.2-2.3-1.1-.3-2.1-.6-3.2-1-3.1-1-6.1-2.1-8.8-3.2-4.1-1.7-7.9-3.6-11.5-5.7-2.2-1.3-3.8-2.2-4.9-2.9-1.9-1-3.6-1.8-5.2-2.3-1-.3-2.4-.6-4.4-1s-3.4-.7-4.4-1c-1.3-.4-2.8-1.1-4.5-2,1.6-1,2.9-2.2,3.7-3.8-1.3,1.6-3,2.5-5.2,2.9-2-1.1-3.5-2-4.6-2.6-2.3-1.2-5.4-2.5-9.2-3.8-5.8-2-8.9-3.1-9.4-3.3-4.2-1.6-8.8-3.9-13.7-6.7-3-1.7-7.4-4.5-13-8.1-11.5-7.5-20.2-13.4-25.8-17.7-5.6-4.3-10.7-8.6-15-12.9,7.9-8.9,15.7-17,23.5-24.1,14.6.8,26,1.4,34.2,1.8,7.5.4,14.7.7,21.6,1-.7,2-1.4,4.5-2.1,7.4-.4,1.9-.7,3.2-.9,4.1-.2,1.6-.3,2.9-.1,4.2.1,1.4.6,3,1.3,4.7.4,1,1.2,2.5,2.2,4.4,3,5.3,5.4,9.2,7.2,11.6,3,3.9,6.5,7.2,10.7,10,4.2,2.8,8.6,4.9,13.3,6.2.6.2,1.3.3,1.9.5.5,1.2,1.3,2.1,2.3,2.8.9.6,1.9,1,3.2,1.2.8.1,2,.3,3.4.4h.9c.2.2.5.4.9.6,0,.1.3.3.3.6s0,.4.2.7c.3.8.9,1.3,1.9,1.6.6.2,1.4.3,2.6.4,1.6,0,2.7,0,3.4-.3,0,0,.4-.2.9-.4.4-.2.7-.3,1-.3h1.8c.6,0,1-.3,1.4-.9s.4-1.1.3-1.7c0-.3-.2-.5-.4-.7,2.2-.2,4.5-.5,6.7-.9h1.5c1.6.2,2.9.3,3.7.3s1.5,0,2.2-.1v.6c0,.2,0,.4.3.6.3.2.7.3,1.1.3s.6,0,1.2-.1c1.3-.2,2.1-.3,2.3-.4.9-.3,1.4-.7,1.7-1.4,0-.4,0-.7,0-1.1,0-.3-.3-.6-.6-.7.4-.2.7-.5,1.2-.8,5.5-3.8,11.1-9.4,16.9-16.9,2-2.6,3.4-4.8,4.4-6.5,2.7-5,3.9-10.4,3.4-16.2,0-1.9-.6-4.5-1.4-7.9-.4-1.7-.7-3.2-1-4.4,3.9,0,7.7-.2,11.5-.3,28.7-1,44.4-1.6,47.2-1.6,17.9,0,33.6.9,46.9,3.2,1.3.2,2.3.3,2.9.3,1.1,0,2-.2,2.7-.6.9-.4,1.5-1.2,1.7-2.2v-.2c7.9.4,14.1.6,18.5.6,6.3,0,12.4-.5,18.4-1.2-2.9-.3-6.2-.5-9.5-.7h.7ZM342.2,33.7c.1-.2.4-.4.7-.6,0,.4.1.7.1,1.1-.4-.2-.7-.3-.9-.5h0ZM451.7,186.9c1.6.3,2.6.7,3.1,1-2.6,0-4.4-.2-5.6-.5-1.3-.4-2.3-1-2.8-1.9l5.4,1.4h-.1ZM567,51.8c.4,0,.7-.2,1-.3h0l-.9.4s0,0-.2,0h.1ZM556.2,49.7c1.4-.2,2.3-.2,2.9,0,.2,0,.4.3.6.4h-.7c-1.7,0-3.1,0-4.2-.2.4,0,.9-.2,1.4-.3ZM523,80.8l8.1-9.9c2.5-3,4.4-5.2,5.9-6.4,1.8-1.6,4.9-3.6,9.1-5.9,2.8-1.4,4.9-2.4,6.4-2.8,2-.6,4.4-.7,7.4-.4h.2l-1.6.7c-1.3.6-1.8,1.3-1.6,2,0,.4.4.7,1,.8.4,0,.9,0,1.4,0,1.1-.2,2.6-.7,4.4-1.4.7-.3,1.4-.6,2-.8.2,0,.3,0,.5.2,1,.5,2.5,1.4,4.2,2.7,1.5,1.2,2.5,2,3.1,2.5,1.1,1,2,2,2.6,3,.9,1.4,1.7,3.5,2.5,6.2.9,3.3,1.5,5.4,2,6.5,0,.3.5,1,1.1,2.1.4.9.8,1.6,1,2.2.4,1,.7,2.1.8,3.3l-.9.9c-7.1-.2-13.6-.2-19.4-.2h-4.8c-12.8-.2-25.7-.6-38.6-1.3.9-1.2,1.9-2.6,3.2-4.2v.2ZM581.8,102.8c-.8,2.8-2.1,5.6-3.8,8.6-1.4,2.3-3.1,4.9-5.3,7.8-4,5.2-7.9,9.2-11.8,12.3-3.2,2.5-6.1,3.6-8.5,3.3-.7,0-1.6-.3-2.6-.6-1.4-.6-2.3-.9-2.5-.9-1.4-.4-3.1-.6-5.1-.6h-5.2c-1.2,0-2.1-.2-2.7-.4-.7-.3-1.6-.9-2.7-2l-5.6-5.5c-1.2-1.1-2-2-2.6-2.6-.9-1-1.6-2-2-3-.4-.8-.8-2.1-1.3-3.9-.4-1.8-.9-3.1-1.3-3.9-.3-.5-.9-1.5-2-3.1-.9-1.2-1.4-2.3-1.7-3.2-.4-1.4-.4-3.2,0-5.3.6-1.7,1.1-3.2,1.4-4.3h2.3c22.6.7,44,.9,64.2.6-.3,2.7-.7,5-1.3,6.8h0Z"/></g></g></g></g></g></svg>