<?xml version="1.0" encoding="utf-8"?>
<!-- Generator: Adobe Illustrator 24.0.1, SVG Export Plug-In . SVG Version: 6.00 Build 0)  -->
<svg version="1.1" id="Capa_1" xmlns="http://www.w3.org/2000/svg" xmlns:xlink="http://www.w3.org/1999/xlink" x="0px" y="0px"
	 viewBox="0 0 12 12" style="enable-background:new 0 0 12 12;" xml:space="preserve">
<style type="text/css">
	.st0{fill:#FFFFFF;}
</style>
<path class="st0" d="M6,3C5,3,4.1,3.8,4.1,4.9S5,6.7,6,6.7s1.9-0.8,1.9-1.9S7,3,6,3"/>
<path class="st0" d="M6,0.7C3.1,0.7,0.8,3.1,0.8,6s2.4,5.3,5.3,5.3s5.3-2.4,5.3-5.3C11.2,3.1,8.9,0.8,6,0.7 M9,9.3
	c0-1-0.8-1.8-1.9-1.8H4.9C3.9,7.5,3,8.3,3,9.3C1.1,7.7,1,4.8,2.6,3S7.1,1,9,2.6S11,7.1,9.4,9C9.2,9.1,9.1,9.2,9,9.3"/>
</svg>
